<svg width="1600" height="965" viewBox="0 0 1600 965" fill="none" xmlns="http://www.w3.org/2000/svg">
<g clip-path="url(#clip0_903_103)">
<path fill-rule="evenodd" clip-rule="evenodd" d="M-1258.17 194.123C-1267.58 200.304 -1272.87 211.107 -1271.94 222.323C-1271.51 227.394 -1269.8 232.341 -1266.99 236.617L-1253.69 256.812C-1256.56 262.132 -1257.91 268.253 -1257.4 274.43C-1256.92 280.104 -1254.91 285.546 -1251.56 290.206L-1238.83 307.862C-1241.99 313.438 -1243.45 319.907 -1242.91 326.522L-1242.91 326.502C-1242.39 332.803 -1240.05 338.775 -1236.14 343.778L-1224.11 359.163C-1227.46 364.984 -1229.04 371.764 -1228.47 378.621L-1228.49 378.623C-1227.91 385.547 -1225.23 392.027 -1220.73 397.37L-1209.58 410.593C-1213.07 416.591 -1214.67 423.559 -1214.07 430.706C-1213.45 438.294 -1210.41 445.281 -1205.3 450.94L-1195.12 462.189C-1198.68 468.363 -1200.32 475.516 -1199.72 482.815C-1199.04 490.929 -1195.56 498.628 -1189.89 504.512L-1180.8 513.922C-1184.37 520.237 -1186.02 527.535 -1185.4 534.909C-1184.68 543.669 -1180.8 551.889 -1174.48 558.064L-1166.56 565.777C-1170.09 572.203 -1171.71 579.598 -1171.1 587.025C-1170.31 596.466 -1166.03 605.188 -1159.05 611.614L-1152.42 617.713C-1155.9 624.215 -1157.44 631.581 -1156.82 639.125L-1156.82 639.106C-1155.99 649.231 -1151.3 658.492 -1143.64 665.167L-1138.35 669.778C-1141.71 676.335 -1143.19 683.709 -1142.58 691.23C-1141.68 702.036 -1136.58 711.796 -1128.23 718.72L-1124.34 721.937C-1127.56 728.531 -1128.97 735.886 -1128.36 743.336C-1127.41 754.669 -1121.75 765.226 -1112.82 772.273L-1110.39 774.193C-1113.44 780.789 -1114.77 788.097 -1114.16 795.446C-1113.16 807.482 -1107.04 818.553 -1097.41 825.806L-1096.45 826.528C-1099.34 833.11 -1100.57 840.345 -1099.97 847.577L-1099.95 847.575C-1098.93 860.066 -1092.59 871.463 -1082.56 878.951C-1085.24 885.478 -1086.38 892.596 -1085.79 899.689C-1084.75 912.248 -1078.56 923.653 -1068.68 931.343C-1071.21 937.802 -1072.24 944.735 -1071.65 951.806C-1070.59 964.451 -1064.53 975.879 -1054.79 983.776C-1057.15 990.171 -1058.08 996.99 -1057.5 1003.92L-1057.52 1003.91C-1056.46 1016.65 -1050.5 1028.12 -1040.91 1036.2C-1043.11 1042.52 -1043.97 1049.24 -1043.4 1056.04L-1043.38 1056.04C-1042.34 1068.66 -1036.36 1080.35 -1026.99 1088.61C-1029.04 1094.87 -1029.82 1101.49 -1029.27 1108.16L-1029.29 1108.17C-1028.23 1120.86 -1022.35 1132.6 -1013.09 1141.04C-1015 1147.23 -1015.72 1153.74 -1015.17 1160.29C-1014.12 1173.08 -1008.33 1184.85 -999.176 1193.45C-1000.97 1199.57 -1001.62 1205.98 -1001.08 1212.41L-1001.1 1212.41C-1000.03 1225.3 -994.319 1237.12 -985.263 1245.89C-986.929 1251.93 -987.525 1258.23 -986.999 1264.53C-985.926 1277.51 -980.304 1289.39 -971.358 1298.3C-972.911 1304.27 -973.457 1310.48 -972.95 1316.68L-972.953 1316.66C-971.367 1335.68 -960.33 1352.3 -943.42 1361.13L553.392 2143.29C566.503 2150.15 581.519 2151.51 595.663 2147.1C609.81 2142.7 621.381 2133.07 628.255 2119.98L1413.12 626.764C1418.01 617.451 1420.14 607.01 1419.29 596.572C1417.72 577.571 1406.68 560.936 1389.77 552.102L-107.04 -230.062C-114.59 -234.007 -122.771 -236.128 -131.054 -236.377C-136.524 -238.367 -142.232 -239.447 -147.991 -239.6C-153.52 -241.629 -159.241 -242.674 -164.929 -242.8C-170.391 -244.85 -176.12 -245.943 -181.909 -246.052C-187.337 -248.115 -193.044 -249.209 -198.816 -249.298C-204.286 -251.402 -209.99 -252.46 -215.662 -252.533C-221.12 -254.691 -226.905 -255.809 -232.768 -255.838C-238.108 -257.966 -243.779 -259.067 -249.536 -259.09C-254.938 -261.296 -260.703 -262.419 -266.56 -262.402C-271.895 -264.606 -277.61 -265.721 -283.428 -265.686C-288.853 -267.97 -294.613 -269.059 -300.336 -269.003C-305.74 -271.326 -311.504 -272.425 -317.23 -272.346C-322.532 -274.682 -328.292 -275.84 -334.19 -275.719C-339.536 -278.104 -345.291 -279.216 -351.009 -279.084C-356.256 -281.508 -362.028 -282.7 -367.97 -282.521C-372.922 -284.843 -378.375 -286.033 -384.007 -285.964C-384.305 -285.96 -384.602 -285.953 -384.899 -285.943C-390.185 -288.463 -395.979 -289.615 -401.732 -289.387C-407.006 -291.972 -412.828 -293.149 -418.609 -292.888C-423.856 -295.525 -429.69 -296.723 -435.486 -296.428C-440.694 -299.106 -446.528 -300.323 -452.328 -299.996C-457.498 -302.724 -463.336 -303.966 -469.144 -303.612C-478.801 -308.85 -490.975 -308.758 -500.786 -302.329L-1258.17 194.123ZM-477.203 -302.055C-484.176 -303.88 -491.872 -302.865 -498.363 -298.616L-1255.71 197.832C-1263.77 203.113 -1268.29 212.36 -1267.49 221.956C-1267.14 226.287 -1265.67 230.517 -1263.26 234.173L-1251.05 252.71C-1249.17 250.231 -1246.92 248.014 -1244.33 246.16L-485.638 -297.747C-482.99 -299.645 -480.145 -301.075 -477.203 -302.055ZM-1248.46 256.644C-1246.68 254.02 -1244.42 251.684 -1241.73 249.753L-483.075 -294.169C-479.139 -296.983 -474.701 -298.602 -470.2 -299.095C-468.76 -298.223 -467.396 -297.207 -466.13 -296.051C-467.635 -295.226 -469.094 -294.27 -470.492 -293.184L-1224.27 293.366L-1248.46 256.644ZM-1250.88 261.071C-1252.6 265.074 -1253.35 269.508 -1252.97 274.065C-1252.57 278.942 -1250.83 283.629 -1247.96 287.641L-1236.22 303.934C-1234.57 301.818 -1232.65 299.887 -1230.48 298.195L-1227.8 296.112L-1250.88 261.071ZM-1225.36 299.814L-1227.75 301.673C-1229.99 303.415 -1231.92 305.451 -1233.5 307.703L-1208.05 343.036L-1200.86 337.005L-1225.36 299.814ZM-1198.42 340.713L-1205.46 346.624L-1180.09 381.838L-1174.59 376.887L-1198.42 340.713ZM-1171.24 373.875L-1194.98 337.83L-456.064 -282.226L-450.911 -274.403L-1171.24 373.875ZM-1172.12 380.626L-1177.49 385.451L-1152.86 419.632L-1148.92 415.849L-1172.12 380.626ZM-1145.66 412.715L-1168.78 377.614L-448.442 -270.655L-442.931 -262.289L-1145.66 412.715ZM-1146.44 419.613L-1150.24 423.263L-1126.29 456.51L-1123.81 453.976L-1146.44 419.613ZM-1120.62 450.725L-1143.18 416.478L-440.453 -258.526L-434.605 -249.648L-1120.62 450.725ZM-1121.31 457.757L-1123.66 460.154L-1100.33 492.531L-1099.21 491.314L-1121.31 457.757ZM-1096.1 487.953L-1118.13 454.506L-432.114 -245.866L-425.969 -236.537L-1096.1 487.953ZM-1096.7 495.123L-1097.69 496.197L-1077.85 523.735L-1096.7 495.123ZM-1072.05 524.468L-1093.59 491.762L-423.454 -232.719L-417.033 -222.97L-1072.05 524.468ZM-1048.44 560.302L-1069.53 528.294L-414.519 -219.155L-407.824 -208.991L-1048.44 560.302ZM-1025.26 595.498L-1045.91 564.155L-405.273 -205.118L-398.371 -194.639L-1025.26 595.498ZM-1015.84 609.795L-1022.69 599.401L-395.794 -190.726L-388.665 -179.904L-1001.8 629.285L-1015.84 609.795ZM-944.987 717.371L-950.415 709.131L-941.723 720.245L-936.798 727.08L-944.987 717.371ZM-948.392 720.259L-938.733 734.921L-940.293 737.255L-962.688 712.498L-959.186 707.462L-948.392 720.259ZM-980.164 672.029L-969.227 688.631L-981.581 673.983L-980.164 672.029ZM-984.078 666.087L-982.774 668.066L-984.529 670.487L-1007.14 643.678L-1004.42 640.081L-984.078 666.087ZM-1019.67 612.056L-1014.12 620.476L-1026.68 604.425L-1025.89 603.428L-1019.67 612.056ZM-936.091 738.932L-928.898 749.852L-937.232 740.639L-936.091 738.932ZM-914.555 763.573L-924.164 748.985L-913.389 761.76L-914.555 763.573ZM-909.383 771.425L-911.887 767.623L-910.398 765.306L-902.574 774.582L-890.523 791.309L-890.878 791.882L-909.383 771.425ZM-912.832 774.241L-914.767 772.102L-918.997 778.679L-896.887 801.577L-895.887 799.964L-912.832 774.241ZM-893.199 804.045L-893.709 804.869L-890.395 808.301L-893.199 804.045ZM-873.716 825.574L-890.629 799.898L-890.219 799.238L-869.225 822.446L-872.099 827.25L-873.716 825.574ZM-877.146 828.414L-874.865 831.875L-879.37 839.405L-901.655 817.691L-896.121 808.761L-877.146 828.414ZM-872.147 836.002L-854.078 863.432L-854.306 863.826L-876.093 842.598L-872.147 836.002ZM-851.602 859.149L-860.47 845.685L-850.054 856.472L-851.602 859.149ZM-838.155 879.563L-848.871 863.295L-846.847 859.794L-826.076 881.307L-829.706 887.796L-838.155 879.563ZM-841.556 882.44L-833.528 894.627L-837.401 901.551L-859.326 881.379L-853.315 870.982L-841.556 882.44ZM-830.782 898.795L-815.989 921.251L-834.049 904.635L-830.782 898.795ZM-810.809 921.079L-826.772 896.844L-807.73 915.398L-810.809 921.079ZM-802.554 933.613L-808.046 925.274L-804.434 918.609L-785.549 937.01L-784.128 938.982L-788.232 946.79L-802.554 933.613ZM-805.944 936.5L-811.406 931.474L-817.812 943.294L-796.266 962.075L-793.084 956.022L-805.944 936.5ZM-790.736 951.554L-792.511 948.86L-790.36 950.839L-790.736 951.554ZM-790.292 960.262L-792.822 965.076L-779.43 976.749L-790.292 960.262ZM-767.009 987.576L-787.943 955.794L-786.976 953.953L-746.531 991.166L-739.572 1000.82C-744.29 1001.59 -749.12 1001.06 -753.522 999.333L-767.009 987.576ZM-770.332 990.561L-769.539 991.765C-766.091 997.009 -761.299 1000.85 -755.91 1003.13L-707.52 1045.31L-706.554 1046.65C-703.308 1051.16 -699.087 1054.55 -694.384 1056.76L-644.626 1100.13L-643.529 1101.54C-640.559 1105.34 -636.901 1108.3 -632.865 1110.39L-581.813 1154.88L-580.548 1156.38C-577.895 1159.53 -574.78 1162.07 -571.384 1163.98L-518.827 1209.79L-517.507 1211.25C-515.244 1213.75 -512.691 1215.85 -509.945 1217.53L-456.248 1264.33L-454.546 1266.1C-452.658 1268.05 -450.597 1269.74 -448.41 1271.17L-393.187 1319.3L-391.507 1320.94C-390.118 1322.29 -388.648 1323.51 -387.112 1324.6L-336.895 1368.37L-802.224 982.963L-794.942 969.109L-770.332 990.561ZM-746.476 1005.47C-743.24 1005.75 -739.949 1005.53 -736.732 1004.77L-718.911 1029.5L-746.476 1005.47ZM-728.662 1001.6L-703.791 1024.48L-724.011 998.626L-726.95 1000.55C-727.514 1000.92 -728.085 1001.27 -728.662 1001.6ZM-719.197 995.471L-702.761 1011.49L-717.311 994.235L-719.197 995.471ZM-720.273 990.885L-722.444 992.308L-726.133 988.713L-742.171 968.206L-720.273 990.885ZM-711.36 990.333L-662.858 1043.95L-660.121 1046.79L93.6986 506.362C101.539 500.735 105.731 491.668 104.944 482.05L104.924 482.052C104.522 477.175 102.784 472.488 99.9124 468.496L-265.329 -38.4586L-276.346 -17.4987L39.2554 461.626C42.0649 465.902 43.7768 470.849 44.201 475.9C45.1315 487.116 39.8617 497.937 30.4138 504.103L-711.36 990.333ZM-278.718 -12.9858L35.5029 464.054C37.9183 467.709 39.4008 471.936 39.7533 476.268L39.7752 476.285C40.5596 485.883 36.0364 495.13 27.9766 500.43L-714.364 987.012L-761.723 934.658L-771.032 923.621L-278.718 -12.9858ZM-279.143 -21.7456L-268.237 -42.4951L-276.973 -54.6207L-287.727 -34.7773L-279.143 -21.7456ZM-290.14 -30.3259L-281.515 -17.2326L-774.126 919.953L-793.021 897.55L-290.14 -30.3259ZM-290.49 -38.9723L-279.847 -58.6105L-288.476 -70.5872L-298.965 -51.8378L-290.49 -38.9723ZM-301.419 -47.4504L-292.903 -34.521L-796.087 893.915L-815.305 871.129L-301.419 -47.4504ZM-301.711 -56.0059L-291.334 -74.5542L-299.843 -86.3652L-310.064 -68.687L-301.711 -56.0059ZM-312.562 -64.3662L-304.165 -51.6186L-818.357 867.51L-837.907 844.331L-312.562 -64.3662ZM-312.803 -72.8452L-302.697 -90.3259L-311.088 -101.973L-321.035 -85.3432L-312.803 -72.8452ZM-323.578 -81.0914L-315.301 -68.5244L-840.95 840.723L-853.645 825.671L-860.627 816.743L-323.578 -81.0914ZM-323.743 -89.4542L-313.911 -105.891L-322.174 -117.36L-331.846 -101.755L-323.743 -89.4542ZM-334.436 -97.5749L-326.286 -85.2026L-863.566 812.985L-883.189 787.894L-334.436 -97.5749ZM-334.535 -105.838L-324.98 -121.255L-333.086 -132.506L-342.479 -117.898L-334.535 -105.838ZM-345.119 -113.793L-337.126 -101.658L-886.1 784.172L-906.092 758.61L-345.119 -113.793ZM-345.159 -121.966L-335.885 -136.39L-343.85 -147.446L-352.961 -133.81L-345.159 -121.966ZM-355.651 -129.783L-347.798 -117.861L-908.985 754.911L-929.36 728.858L-355.651 -129.783ZM-355.609 -137.831L-346.618 -151.288L-354.431 -162.133L-363.257 -149.442L-355.609 -137.831ZM-366.001 -145.496L-358.3 -133.804L-932.23 725.188L-938.239 717.506L-952.452 697.779L-366.001 -145.496ZM-365.875 -153.416L-357.17 -165.934L-364.803 -176.529L-373.342 -164.753L-365.875 -153.416ZM-376.142 -160.892L-368.619 -149.471L-955.196 693.97L-975.57 665.694L-376.142 -160.892ZM-375.946 -168.705L-367.528 -180.312L-374.973 -190.645L-383.225 -179.755L-375.946 -168.705ZM-386.083 -175.983L-378.746 -164.844L-978.302 661.901L-999.089 633.051L-386.083 -175.983ZM-385.807 -183.676L-377.68 -194.402L-384.912 -204.441L-392.875 -194.405L-385.807 -183.676ZM-395.452 -198.318L-387.617 -208.194L-394.618 -217.913L-402.291 -208.7L-395.452 -198.318ZM-404.842 -212.572L-397.298 -221.632L-404.089 -231.058L-411.47 -222.635L-404.842 -212.572ZM-413.983 -226.45L-406.731 -234.725L-413.241 -243.761L-420.334 -236.092L-413.983 -226.45ZM-422.849 -239.91L-415.888 -247.435L-422.114 -256.076L-428.92 -249.127L-422.849 -239.91ZM-431.411 -252.908L-424.739 -259.72L-430.657 -267.935L-437.181 -261.668L-431.411 -252.908ZM-439.66 -265.431L-433.273 -271.566L-438.841 -279.294L-445.088 -273.672L-439.66 -265.431ZM-447.557 -277.42L-441.451 -282.916L-445.092 -287.97C-445.422 -288.429 -445.764 -288.874 -446.117 -289.305C-448.355 -288.255 -450.494 -286.902 -452.472 -285.24L-452.624 -285.113L-447.557 -277.42ZM-455.08 -288.841C-453.274 -290.326 -451.356 -291.592 -449.36 -292.64C-450.606 -293.717 -451.935 -294.666 -453.328 -295.486C-455.158 -295.302 -456.977 -294.939 -458.758 -294.393C-458.561 -294.114 -458.367 -293.831 -458.178 -293.544L-455.08 -288.841ZM-463.037 -292.684C-464.678 -291.865 -466.262 -290.874 -467.764 -289.706L-1221.83 297.069L-1197.42 334.122L-458.521 -285.956L-461.908 -291.099C-462.268 -291.645 -462.644 -292.174 -463.037 -292.684ZM-461.782 -298.033C-461.387 -298.179 -460.99 -298.317 -460.591 -298.447C-461.264 -298.614 -461.944 -298.756 -462.628 -298.871C-462.341 -298.598 -462.059 -298.319 -461.782 -298.033ZM-726.747 995.128L-729.39 996.861C-730.277 997.442 -731.186 997.962 -732.113 998.423L-743.16 988.259L-767.214 954.874L-729.459 991.66L-726.747 995.128ZM-1238.5 326.159C-1238.91 321.168 -1237.99 316.264 -1235.94 311.887L-1211.44 345.885L-1216.62 350.23C-1218.44 351.757 -1220.08 353.459 -1221.51 355.3L-1232.64 341.067C-1236.03 336.747 -1238.04 331.601 -1238.5 326.159ZM-1213.77 353.594L-1208.86 349.472L-1183.39 384.813L-1192.22 392.756L-1218.69 358.911C-1217.29 356.96 -1215.64 355.17 -1213.77 353.594ZM-1189.49 396.251L-1180.79 388.426L-1156.08 422.725L-1163.33 429.692L-1189.49 396.251ZM-1160.59 433.201L-1153.46 426.357L-1129.43 459.716L-1135.22 465.633L-1160.59 433.201ZM-1132.47 469.149L-1126.8 463.36L-1103.4 495.844L-1107.84 500.646L-1132.47 469.149ZM-1105.08 504.179L-1100.76 499.51L-1077.94 531.186L-1081.12 534.816L-1105.08 504.179ZM-1078.35 538.358L-1075.29 534.864L-1053.01 565.783L-1055.01 568.191L-1078.35 538.358ZM-1052.23 571.75L-1050.34 569.482L-1028.58 599.684L-1029.49 600.827L-1052.23 571.75ZM-863.399 821.377L-860.278 825.709L-852.639 834.154L-856.584 829.11L-863.277 821.174L-863.399 821.377ZM-847.169 851.482L-863.648 828.61L-866.103 825.897L-868.896 830.567L-847.743 852.474L-847.169 851.482ZM-887.106 796.051L-887.718 795.202L-887.782 795.304L-887.106 796.051ZM-842.67 857.728L-844.324 855.431L-844.535 855.796L-842.67 857.728ZM-836.819 858.269L-823.516 876.731L-822.217 874.409L-836.819 858.269ZM-826.42 890.997L-823.045 884.966L-804.892 910.162L-805.535 911.347L-826.42 890.997ZM-803 905.206L-802.547 905.835L-802.492 905.732L-803 905.206ZM-802.239 914.559L-802.018 914.151L-800.513 916.24L-802.239 914.559ZM-799.673 909.824L-782.179 934.104L-781.772 934.5L-779.285 929.768L-799.266 909.073L-799.673 909.824ZM-759.371 973.344L-781.224 943.012L-784.847 949.904L-759.371 973.344ZM-730.317 1006.08L-704.215 1042.31L-691.941 1053.01C-688.082 1054.72 -683.868 1055.52 -679.659 1055.34L-687.032 1045.91L-730.317 1006.08ZM-676.42 1059.48C-679.075 1059.85 -681.757 1059.88 -684.399 1059.58L-659.075 1081.66L-676.42 1059.48ZM-650.258 1073.73L-668.247 1057.18C-667.284 1056.77 -666.336 1056.3 -665.405 1055.78L-650.258 1073.73ZM-603.351 1105.58L-657.012 1050L96.2836 509.957C105.243 503.517 110.256 492.69 109.353 481.687C108.889 476.01 106.877 470.569 103.526 465.908L-263.021 -42.8486L-253.375 -61.1991L164.317 472.899C167.704 477.22 169.72 482.385 170.171 487.807L170.169 487.788C170.96 497.287 166.956 506.429 159.438 512.272L-600.546 1103.65C-601.453 1104.36 -602.39 1105 -603.351 1105.58ZM-256.383 -65.0456L-265.929 -46.8851L-274.624 -58.9537L-265.208 -76.3288L-256.383 -65.0456ZM-268.183 -80.133L-277.499 -62.9435L-286.085 -74.8609L-276.9 -91.2797L-268.183 -80.133ZM-279.86 -95.0645L-288.943 -78.8279L-297.408 -90.5772L-288.458 -106.059L-279.86 -95.0645ZM-291.415 -109.84L-300.262 -94.5379L-308.607 -106.121L-299.896 -120.684L-291.415 -109.84ZM-302.823 -124.427L-311.43 -110.039L-319.645 -121.441L-311.176 -135.108L-302.823 -124.427ZM-314.088 -138.832L-322.451 -125.336L-330.507 -136.517L-322.282 -149.309L-314.088 -138.832ZM-325.188 -153.025L-333.305 -140.401L-341.218 -151.384L-333.242 -163.323L-325.188 -153.025ZM-336.119 -167.002L-343.987 -155.226L-351.745 -165.996L-344.02 -177.105L-336.119 -167.002ZM-346.868 -180.747L-354.484 -169.796L-362.06 -180.311L-354.586 -190.616L-346.868 -180.747ZM-357.424 -194.245L-364.785 -184.095L-372.17 -194.345L-364.952 -203.871L-357.424 -194.245ZM-367.772 -207.477L-374.877 -198.101L-382.046 -208.053L-375.085 -216.827L-367.772 -207.477ZM-377.905 -220.434L-384.751 -211.806L-391.687 -221.433L-384.982 -229.483L-377.905 -220.434ZM-387.78 -233.061L-394.366 -225.152L-401.088 -234.482L-394.643 -241.836L-387.78 -233.061ZM-397.405 -245.368L-403.731 -238.149L-410.167 -247.083L-403.979 -253.774L-397.405 -245.368ZM-406.749 -257.316L-412.815 -250.758L-418.963 -259.292L-413.031 -265.349L-406.749 -257.316ZM-415.781 -268.865L-421.589 -262.936L-427.426 -271.038L-421.948 -276.301C-421.881 -276.365 -421.814 -276.429 -421.746 -276.493L-415.781 -268.865ZM-425.015 -279.499L-430.043 -274.67L-435.476 -282.211C-433.505 -283.737 -431.393 -284.983 -429.192 -285.952C-428.879 -285.592 -428.573 -285.221 -428.275 -284.841L-424.486 -279.996C-424.664 -279.833 -424.84 -279.667 -425.015 -279.499ZM-432.585 -289.252C-434.491 -288.295 -436.328 -287.149 -438.071 -285.813L-441.475 -290.538C-441.571 -290.671 -441.667 -290.803 -441.765 -290.934C-440.027 -291.429 -438.255 -291.759 -436.474 -291.926C-435.116 -291.153 -433.815 -290.261 -432.585 -289.252ZM-444.009 -294.879C-444.315 -294.781 -444.62 -294.679 -444.923 -294.572C-445.139 -294.785 -445.357 -294.994 -445.577 -295.2C-445.052 -295.108 -444.529 -295.001 -444.009 -294.879ZM-671.869 1053.85C-670.662 1053.43 -669.476 1052.92 -668.32 1052.32L-673.479 1046.2L-705.799 1014.71L-683.71 1042.96L-671.869 1053.85ZM-1221.13 362.978C-1223.44 367.65 -1224.48 372.92 -1224.04 378.236C-1223.54 384.243 -1221.21 389.861 -1217.31 394.492L-1206.97 406.748C-1205.72 405.144 -1204.32 403.637 -1202.76 402.246L-1195.52 395.725L-1221.13 362.978ZM-1192.78 399.22L-1199.8 405.537C-1201.4 406.969 -1202.81 408.541 -1204.04 410.224L-1176.75 442.581L-1166.54 432.776L-1192.78 399.22ZM-1163.8 436.284L-1173.89 445.975L-1147.09 477.748L-1138.35 468.825L-1163.8 436.284ZM-1135.6 472.341L-1144.22 481.146L-1118.27 511.92L-1110.89 503.94L-1135.6 472.341ZM-1108.12 507.473L-1115.39 515.331L-1090.21 545.19L-1084.09 538.207L-1108.12 507.473ZM-1081.32 541.749L-1087.33 548.605L-1062.86 577.614L-1057.91 571.674L-1081.32 541.749ZM-1055.13 575.232L-1059.97 581.042L-1036.18 609.253L-1032.32 604.397L-1055.13 575.232ZM-1029.51 607.995L-1033.26 612.716L-1010.07 640.201L-1007.24 636.466L-1029.51 607.995ZM-768.495 934.547L-772.833 929L-765.43 937.184L-761.846 941.433L-768.495 934.547ZM-814.388 883.064L-800.105 901.328L-800.272 901.637L-820.596 880.588L-819.08 877.877L-814.388 883.064ZM-771.802 937.518L-749.793 965.66L-778.451 937.736L-776.033 933.135L-771.802 937.518ZM-641.38 1097.08L-666.949 1064.39L-627.623 1100.57L-620.094 1109.5C-623.659 1109.21 -627.164 1108.25 -630.402 1106.65L-641.38 1097.08ZM-622.285 1113.73C-620.305 1114 -618.302 1114.09 -616.301 1114L-600.545 1132.68L-622.285 1113.73ZM-608.074 1112.55L-600.434 1119.58L-607.087 1112.22C-607.268 1112.28 -607.449 1112.35 -607.631 1112.4C-607.778 1112.45 -607.926 1112.5 -608.074 1112.55ZM-600.189 1108.85L-558.186 1152.35L-547.386 1162.88C-543.362 1161.82 -539.506 1159.88 -536.115 1157.03L225.18 518.2C232.394 512.14 236.234 502.94 235.457 493.558L235.459 493.577C234.973 487.567 232.644 481.95 228.723 477.302L-242.657 -81.5898L-251.116 -65.4966L167.817 470.188C171.724 475.192 174.078 481.162 174.602 487.462C175.5 498.426 170.854 509.029 162.171 515.788L-597.813 1107.17C-598.587 1107.77 -599.38 1108.33 -600.189 1108.85ZM-254.125 -69.3432L-245.756 -85.2641L-254.65 -95.809L-262.907 -80.5733L-254.125 -69.3432ZM-265.882 -84.3775L-257.716 -99.4447L-266.504 -109.863L-274.556 -95.4689L-265.882 -84.3775ZM-277.516 -99.2537L-269.556 -113.483L-278.224 -123.76L-286.069 -110.19L-277.516 -99.2537ZM-289.027 -113.972L-281.276 -127.379L-289.827 -137.517L-297.46 -124.756L-289.027 -113.972ZM-300.387 -128.499L-292.849 -141.1L-301.273 -151.087L-308.691 -139.117L-300.387 -128.499ZM-311.603 -142.841L-304.282 -154.655L-312.544 -164.452L-319.746 -153.252L-311.603 -142.841ZM-322.653 -156.969L-315.55 -168.015L-323.672 -177.645L-330.652 -167.198L-322.653 -156.969ZM-333.53 -170.877L-326.649 -181.175L-334.618 -190.624L-341.374 -180.908L-333.53 -170.877ZM-344.223 -184.55L-337.567 -194.12L-345.352 -203.35L-351.883 -194.345L-344.223 -184.55ZM-354.72 -197.974L-348.293 -206.837L-355.884 -215.838L-362.187 -207.521L-354.72 -197.974ZM-365.007 -211.127L-358.809 -219.306L-366.182 -228.048L-372.254 -220.394L-365.007 -211.127ZM-375.075 -224.001L-369.111 -231.52L-376.244 -239.977L-382.084 -232.963L-375.075 -224.001ZM-384.882 -236.541L-379.151 -243.424L-386.067 -251.623L-391.673 -245.225L-384.882 -236.541ZM-394.435 -248.756L-388.939 -255.029L-395.558 -262.877L-400.933 -257.066L-394.435 -248.756ZM-403.704 -260.608L-398.442 -266.297L-404.69 -273.705C-405.368 -273.118 -406.025 -272.501 -406.659 -271.854L-409.906 -268.539L-403.704 -260.608ZM-412.656 -272.055L-409.83 -274.941C-409.094 -275.692 -408.331 -276.408 -407.543 -277.087L-411.46 -281.732C-411.719 -282.039 -411.983 -282.339 -412.252 -282.633C-414.364 -281.762 -416.4 -280.65 -418.318 -279.296L-412.656 -272.055ZM-421.052 -282.791C-419.371 -283.993 -417.61 -285.031 -415.789 -285.905C-416.989 -286.843 -418.251 -287.675 -419.56 -288.4C-421.303 -288.254 -423.037 -287.956 -424.74 -287.507L-421.052 -282.791ZM-428.035 -291.142C-427.815 -291.216 -427.594 -291.287 -427.373 -291.356C-427.751 -291.439 -428.13 -291.516 -428.511 -291.584C-428.351 -291.439 -428.192 -291.291 -428.035 -291.142ZM-610.374 1108.59C-610.899 1108.73 -611.428 1108.86 -611.958 1108.97L-624.211 1097.7L-640.74 1078.1L-617.233 1101.01L-610.374 1108.59ZM-1209.65 430.341C-1210.12 424.666 -1209 419.126 -1206.51 414.233L-1179.98 445.683L-1188.91 454.261C-1190.25 455.546 -1191.47 456.919 -1192.57 458.366L-1201.99 447.958C-1206.46 443.025 -1209.11 436.935 -1209.65 430.341ZM-1185.84 457.459L-1177.12 449.078L-1150.23 480.954L-1161.62 492.584L-1189.54 461.716C-1188.45 460.204 -1187.22 458.779 -1185.84 457.459ZM-1158.65 495.871L-1147.36 484.352L-1121.33 515.225L-1131.34 526.056L-1158.65 495.871ZM-1128.36 529.352L-1118.45 518.636L-1093.19 548.588L-1101.93 558.568L-1128.36 529.352ZM-1098.95 561.867L-1090.3 552.004L-1065.76 581.1L-1073.33 590.186L-1098.95 561.867ZM-1070.34 593.493L-1062.87 584.528L-1039.01 612.823L-1045.48 620.977L-1070.34 593.493ZM-1042.46 624.315L-1036.09 616.285L-1012.84 643.85L-1018.28 651.038L-1042.46 624.315ZM-1015.26 654.387L-1009.91 647.327L-987.23 674.212L-991.721 680.404L-1015.26 654.387ZM-988.677 683.768L-984.282 677.708L-962.142 703.957L-965.737 709.127L-988.677 683.768ZM-673.046 1039.8L-670.014 1043.39L-664.418 1048.85L-666.017 1047.08L-673.046 1039.8ZM-601.575 1124.54L-578.518 1151.88L-568.904 1160.26C-566.4 1161.63 -563.725 1162.61 -560.975 1163.2L-567.997 1155.43L-601.575 1124.54ZM-556.405 1168.25C-557.668 1168.19 -558.927 1168.06 -560.176 1167.86L-543.984 1181.98L-556.405 1168.25ZM-490.662 1218.15L-543.765 1166.41C-540.036 1165.1 -536.477 1163.12 -533.278 1160.44L228.014 521.586C236.335 514.616 240.764 504.002 239.866 493.195C239.302 486.269 236.608 479.791 232.106 474.449L-240.438 -85.8116L-233.015 -99.933L293.147 481.704C297.594 486.619 300.242 492.729 300.783 499.323L300.781 499.303C301.565 508.744 297.982 517.793 290.941 524.127L-471.662 1210.43C-477.106 1215.33 -483.859 1217.88 -490.662 1218.15ZM-236.197 -103.45L-243.537 -89.4858L-252.389 -99.9808L-245.147 -113.343L-236.197 -103.45ZM-248.297 -116.825L-255.455 -103.616L-264.199 -113.983L-257.14 -126.601L-248.297 -116.825ZM-260.277 -130.069L-267.251 -117.602L-275.874 -127.825L-269.001 -139.713L-260.277 -130.069ZM-272.14 -143.182L-278.926 -131.444L-287.429 -141.525L-280.747 -152.697L-272.14 -143.182ZM-283.856 -156.134L-290.452 -145.109L-298.825 -155.037L-292.336 -165.508L-283.856 -156.134ZM-295.434 -168.932L-301.834 -158.604L-310.045 -168.339L-303.751 -178.127L-295.434 -168.932ZM-306.848 -181.549L-313.05 -171.903L-321.118 -181.468L-315.024 -190.588L-306.848 -181.549ZM-318.093 -193.981L-324.095 -184.998L-332.007 -194.378L-326.116 -202.849L-318.093 -193.981ZM-329.158 -206.212L-334.956 -197.875L-342.681 -207.033L-336.995 -214.875L-329.158 -206.212ZM-340.03 -218.23L-345.622 -210.52L-353.15 -219.446L-347.671 -226.678L-340.03 -218.23ZM-350.693 -230.018L-356.075 -222.914L-363.382 -231.577L-358.112 -238.219L-350.693 -230.018ZM-361.14 -241.566L-366.31 -235.049L-373.373 -243.423L-368.315 -249.498L-361.14 -241.566ZM-371.323 -252.823L-376.281 -246.87L-383.123 -254.982L-378.278 -260.511L-371.323 -252.823ZM-381.252 -263.799L-385.995 -258.388L-392.537 -266.144L-391.387 -267.386C-390.218 -268.651 -388.967 -269.812 -387.646 -270.866L-381.252 -263.799ZM-394.665 -270.38L-395.421 -269.563L-401.156 -276.363C-399.318 -277.556 -397.369 -278.554 -395.337 -279.344C-395.102 -279.101 -394.871 -278.854 -394.644 -278.602L-390.621 -274.156C-392.046 -273.006 -393.397 -271.745 -394.665 -270.38ZM-399.026 -282.586C-400.76 -281.783 -402.432 -280.843 -404.029 -279.77L-407.693 -284.113C-406.039 -284.514 -404.358 -284.777 -402.67 -284.905C-401.412 -284.227 -400.193 -283.454 -399.026 -282.586ZM-410.771 -287.861C-410.826 -287.844 -410.881 -287.827 -410.936 -287.81C-411.002 -287.789 -411.068 -287.769 -411.134 -287.748L-411.205 -287.812L-411.277 -287.877C-411.317 -287.913 -411.357 -287.949 -411.398 -287.985C-411.261 -287.96 -411.125 -287.933 -410.99 -287.906C-410.917 -287.891 -410.844 -287.876 -410.771 -287.861ZM-1191.97 465.669C-1194.61 470.776 -1195.79 476.564 -1195.31 482.452C-1194.72 489.553 -1191.66 496.281 -1186.69 501.445L-1178.32 510.111C-1177.33 508.775 -1176.24 507.5 -1175.05 506.296L-1164.74 495.77L-1191.97 465.669ZM-1161.77 499.058L-1171.88 509.382C-1173.1 510.625 -1174.2 511.953 -1175.19 513.351L-1146.79 542.76L-1134.38 529.337L-1161.77 499.058ZM-1131.4 532.633L-1143.71 545.95L-1116.01 574.638L-1104.89 561.939L-1131.4 532.633ZM-1101.9 565.237L-1112.93 577.827L-1086.14 605.573L-1076.21 593.641L-1101.9 565.237ZM-1073.22 596.947L-1083.06 608.767L-1057.11 635.64L-1048.28 624.511L-1073.22 596.947ZM-1045.26 627.849L-1054 638.862L-1028.82 664.941L-1021.02 654.647L-1045.26 627.849ZM-1017.99 657.996L-1025.7 668.172L-1001.23 693.515L-994.39 684.084L-1017.99 657.996ZM-991.346 687.449L-998.097 696.759L-974.286 721.419L-968.344 712.876L-991.346 687.449ZM-965.295 716.247L-971.15 724.666L-947.941 748.703L-942.841 741.068L-965.295 716.247ZM-939.78 744.452L-944.796 751.96L-922.161 775.402L-917.848 768.696L-939.78 744.452ZM-564.74 1152.42L-566.763 1150.18L-561.781 1155.03L-560.876 1155.97L-564.74 1152.42ZM-515.689 1206.64L-532.305 1188.27L-508.864 1209.84L-502.784 1216.14C-504.354 1215.53 -505.88 1214.79 -507.345 1213.91L-515.689 1206.64ZM-497.996 1222.06C-497.628 1222.13 -497.259 1222.19 -496.889 1222.24L-492.101 1227.2L-497.996 1222.06ZM-486.504 1222.2L-445.981 1261.68L-434.781 1271.99C-425.159 1273.83 -414.808 1271.14 -407.226 1263.86L356.685 530.075C363.467 523.558 366.904 514.448 366.13 505.085L366.149 505.083C365.563 497.982 362.499 491.235 357.549 486.088L-224.313 -116.489L-230.822 -104.106L296.437 478.743C301.551 484.402 304.586 491.389 305.212 498.958C306.112 509.784 301.989 520.163 293.923 527.435L-468.699 1213.75C-473.874 1218.4 -480.084 1221.2 -486.504 1222.2ZM-234.003 -107.623L-227.57 -119.862L-236.565 -129.177L-242.911 -117.47L-234.003 -107.623ZM-246.06 -120.951L-239.791 -132.518L-248.68 -141.723L-254.859 -130.678L-246.06 -120.951ZM-257.996 -134.146L-251.895 -145.052L-260.664 -154.134L-266.674 -143.739L-257.996 -134.146ZM-269.813 -147.208L-263.882 -157.466L-272.534 -166.427L-278.371 -156.669L-269.813 -147.208ZM-281.48 -160.106L-275.724 -169.73L-284.248 -178.558L-289.909 -169.423L-281.48 -160.106ZM-293.007 -172.848L-287.428 -181.851L-295.789 -190.509L-301.271 -181.983L-293.007 -172.848ZM-304.368 -185.406L-298.969 -193.802L-307.189 -202.315L-312.488 -194.383L-304.368 -185.406ZM-315.558 -197.776L-310.343 -205.581L-318.408 -213.933L-323.522 -206.58L-315.558 -197.776ZM-326.564 -209.942L-321.536 -217.172L-329.413 -225.33L-334.339 -218.537L-326.564 -209.942ZM-337.374 -221.893L-332.536 -228.564L-340.216 -236.518L-344.951 -230.268L-337.374 -221.893ZM-347.972 -233.608L-343.327 -239.739L-350.781 -247.459L-355.323 -241.734L-347.972 -233.608ZM-358.351 -245.081L-353.901 -250.69L-361.107 -258.153L-365.454 -252.933L-358.351 -245.081ZM-368.462 -256.259L-364.295 -261.264L-364.209 -261.365L-370.622 -268.006C-372.288 -266.784 -373.864 -265.397 -375.326 -263.846L-368.462 -256.259ZM-378.289 -267.121C-376.851 -268.62 -375.318 -269.98 -373.706 -271.2L-377.849 -275.49C-378.035 -275.683 -378.223 -275.873 -378.413 -276.06C-380.346 -275.351 -382.208 -274.465 -383.976 -273.408L-378.289 -267.121ZM-386.997 -276.747C-385.476 -277.705 -383.892 -278.55 -382.255 -279.279C-383.403 -280.092 -384.596 -280.819 -385.823 -281.46C-387.454 -281.347 -389.062 -281.115 -390.634 -280.768L-386.997 -276.747ZM-394.242 -284.403L-394.234 -284.406L-394.247 -284.408L-394.242 -284.403ZM-1180.97 534.544C-1181.47 528.508 -1180.25 522.544 -1177.56 517.275L-1149.81 546.019L-1161.2 558.33C-1162.26 559.475 -1163.24 560.68 -1164.14 561.935L-1171.37 554.891C-1176.93 549.466 -1180.33 542.249 -1180.97 534.544ZM-1157.94 561.327L-1146.73 549.209L-1118.95 577.983L-1132.18 593.08L-1160.92 565.07C-1160.02 563.759 -1159.03 562.507 -1157.94 561.327ZM-1129.01 596.168L-1115.87 581.173L-1089 609L-1101.02 623.437L-1129.01 596.168ZM-1097.85 626.527L-1085.91 612.195L-1059.89 639.145L-1070.8 652.887L-1097.85 626.527ZM-1067.6 656.002L-1056.78 642.367L-1031.53 668.519L-1041.39 681.535L-1067.6 656.002ZM-1038.19 684.656L-1028.41 671.75L-1003.87 697.162L-1012.77 709.427L-1038.19 684.656ZM-1009.55 712.558L-1000.74 700.406L-976.868 725.132L-984.858 736.621L-1009.55 712.558ZM-981.643 739.754L-973.733 728.38L-950.464 752.478L-957.609 763.172L-981.643 739.754ZM-954.386 766.312L-947.319 755.736L-924.627 779.238L-930.98 789.118L-954.386 766.312ZM-927.739 792.275L-921.463 782.515L-899.299 805.47L-904.908 814.521L-927.739 792.275ZM-453.436 1260.84L-453.039 1261.25L-452.091 1262.08L-453.436 1260.84ZM-377.358 1324.82L-429.404 1276.93C-420.336 1277.06 -411.215 1273.77 -404.184 1267.02L359.73 533.257C367.478 525.808 371.422 515.413 370.536 504.703C369.883 496.606 366.381 488.889 360.709 483.026L-222.145 -120.613L-216.43 -131.486L421.913 490.476C427.467 495.882 430.869 503.118 431.512 510.823L431.531 510.82C432.298 520.126 428.988 529.298 422.444 535.982L-342.779 1317.22C-352.027 1326.67 -365.713 1329.23 -377.358 1324.82ZM-219.757 -134.728L-225.402 -123.987L-234.354 -133.258L-228.788 -143.528L-219.757 -134.728ZM-232.084 -146.739L-237.58 -136.599L-246.423 -145.757L-241.009 -155.435L-232.084 -146.739ZM-244.295 -158.637L-249.638 -149.087L-258.36 -158.12L-253.101 -167.217L-244.295 -158.637ZM-256.392 -170.423L-261.578 -161.452L-270.18 -170.362L-265.08 -178.889L-256.392 -170.423ZM-268.343 -182.068L-273.37 -173.665L-281.843 -182.44L-276.904 -190.409L-268.343 -182.068ZM-280.159 -193.58L-285.022 -185.733L-293.329 -194.336L-288.554 -201.76L-280.159 -193.58ZM-291.811 -204.934L-296.509 -197.629L-304.671 -206.083L-300.065 -212.976L-291.811 -204.934ZM-303.297 -216.125L-307.825 -209.349L-315.83 -217.639L-311.396 -224.016L-303.297 -216.125ZM-314.603 -227.141L-318.958 -220.879L-326.772 -228.971L-322.511 -234.846L-314.603 -227.141ZM-325.716 -237.969L-329.895 -232.206L-337.508 -240.091L-333.425 -245.48L-325.716 -237.969ZM-336.619 -248.592L-340.619 -243.312L-348.003 -250.96L-345.61 -253.976C-345.105 -254.614 -344.582 -255.231 -344.044 -255.826L-336.619 -248.592ZM-349.113 -256.725L-351.123 -254.191L-358.098 -261.415C-356.681 -262.774 -355.165 -264.006 -353.564 -265.102L-347.232 -258.933C-347.88 -258.224 -348.507 -257.488 -349.113 -256.725ZM-356.792 -268.248C-358.33 -267.145 -359.796 -265.928 -361.178 -264.604L-366.807 -270.434C-365.086 -271.376 -363.298 -272.162 -361.465 -272.793C-361.321 -272.657 -361.177 -272.519 -361.034 -272.381L-356.792 -268.248ZM-365.441 -275.983C-366.989 -275.326 -368.501 -274.567 -369.965 -273.705L-373.562 -277.43C-372.041 -277.738 -370.488 -277.942 -368.913 -278.04C-367.717 -277.43 -366.558 -276.743 -365.441 -275.983ZM-1163.24 569.009C-1165.95 574.422 -1167.17 580.535 -1166.67 586.661C-1165.99 594.991 -1162.21 602.692 -1156.05 608.376L-1150.07 613.876C-1149.22 612.656 -1148.3 611.476 -1147.3 610.341L-1135.11 596.424L-1163.24 569.009ZM-1131.94 599.511L-1143.98 613.25C-1145 614.417 -1145.93 615.637 -1146.78 616.904L-1117.79 643.576L-1103.87 626.859L-1131.94 599.511ZM-1100.7 629.948L-1114.54 646.567L-1086.35 672.498L-1073.57 656.382L-1100.7 629.948ZM-1070.37 659.497L-1083.08 675.512L-1055.83 700.585L-1044.09 685.1L-1070.37 659.497ZM-1040.89 688.221L-1052.55 703.604L-1026.15 727.886L-1015.4 713.057L-1040.89 688.221ZM-1012.19 716.188L-1022.87 730.912L-997.267 754.464L-987.426 740.314L-1012.19 716.188ZM-984.211 743.447L-993.978 757.491L-969.104 780.376L-960.115 766.923L-984.211 743.447ZM-956.892 770.064L-965.809 783.408L-941.619 805.664L-933.428 792.926L-956.892 770.064ZM-930.188 796.083L-938.307 808.711L-914.744 830.391L-907.301 818.382L-930.188 796.083ZM-904.048 821.552L-911.421 833.448L-888.449 854.584L-881.71 843.317L-904.048 821.552ZM-878.432 846.51L-885.103 857.662L-862.673 878.299L-856.595 867.787L-878.432 846.51ZM-370.616 1331.02C-359.556 1332.45 -347.976 1328.87 -339.605 1320.32L425.634 539.067C433.069 531.48 436.831 521.049 435.96 510.456C435.242 501.696 431.361 493.476 425.04 487.32L-214.274 -135.587L-209.265 -145.118L486.318 494.879C492.477 500.544 496.255 508.264 496.938 516.594L496.94 516.614C497.722 525.878 494.537 535.113 488.21 541.947L-278.324 1370.64C-290.013 1383.27 -309.318 1384.82 -322.829 1374.75L-327.827 1370.39L-370.616 1331.02ZM-217.601 -138.828L-212.656 -148.238L-221.717 -156.575L-226.589 -147.585L-217.601 -138.828ZM-229.885 -150.797L-225.078 -159.667L-234.032 -167.906L-238.764 -159.448L-229.885 -150.797ZM-242.05 -162.65L-237.384 -170.99L-246.219 -179.119L-250.808 -171.183L-242.05 -162.65ZM-254.099 -174.389L-249.578 -182.209L-258.296 -190.231L-262.737 -182.806L-254.099 -174.389ZM-266 -185.985L-261.627 -193.296L-270.217 -201.199L-274.508 -194.275L-266 -185.985ZM-277.763 -197.446L-273.541 -204.258L-281.965 -212.008L-286.103 -205.572L-277.763 -197.446ZM-289.36 -208.746L-285.293 -215.071L-293.575 -222.69L-297.556 -216.731L-289.36 -208.746ZM-300.788 -219.881L-296.879 -225.731L-305.004 -233.206L-308.826 -227.712L-300.788 -219.881ZM-312.033 -230.836L-308.285 -236.225L-316.218 -243.524L-319.877 -238.479L-312.033 -230.836ZM-323.081 -241.601L-319.498 -246.542L-326.969 -253.416C-328.177 -252.206 -329.317 -250.901 -330.377 -249.502L-330.722 -249.047L-323.081 -241.601ZM-333.916 -252.158L-333.909 -252.169C-332.761 -253.683 -331.53 -255.099 -330.228 -256.415L-336.501 -262.186C-338.023 -261.221 -339.484 -260.136 -340.871 -258.934L-333.916 -252.158ZM-344.064 -262.046C-342.726 -263.225 -341.324 -264.305 -339.87 -265.286L-344.222 -269.291C-344.259 -269.325 -344.296 -269.359 -344.333 -269.393C-344.392 -269.446 -344.451 -269.5 -344.51 -269.553C-346.267 -268.983 -347.97 -268.279 -349.608 -267.447L-344.064 -262.046ZM-352.937 -270.691C-351.554 -271.46 -350.126 -272.145 -348.659 -272.744C-349.728 -273.44 -350.831 -274.072 -351.965 -274.636C-353.467 -274.557 -354.964 -274.381 -356.445 -274.109L-352.937 -270.691ZM-1152.39 638.76C-1152.91 632.468 -1151.74 626.323 -1149.04 620.824L-1120.62 646.972L-1133.45 662.376C-1134.39 663.507 -1135.26 664.679 -1136.06 665.887L-1140.71 661.839C-1147.49 655.919 -1151.65 647.714 -1152.39 638.76ZM-1130.03 665.176L-1117.37 649.964L-1089.11 675.966L-1103.58 694.205L-1132.7 668.817C-1131.9 667.559 -1131.01 666.343 -1130.03 665.176ZM-1100.23 697.125L-1085.83 678.98L-1058.51 704.121L-1071.91 721.809L-1100.23 697.125ZM-1068.56 724.732L-1055.23 707.139L-1028.77 731.485L-1041.18 748.598L-1068.56 724.732ZM-1037.81 751.527L-1025.48 734.512L-999.813 758.124L-1011.3 774.64L-1037.81 751.527ZM-1007.94 777.568L-996.523 761.151L-971.588 784.094L-982.211 799.994L-1007.94 777.568ZM-978.849 802.925L-968.292 787.125L-944.044 809.436L-953.862 824.705L-978.849 802.925ZM-950.485 827.649L-940.733 812.483L-917.113 834.215L-926.176 848.838L-950.485 827.649ZM-922.788 851.791L-913.79 837.272L-890.766 858.457L-899.12 872.422L-922.788 851.791ZM-895.71 875.394L-887.42 861.535L-864.939 882.22L-872.625 895.515L-895.71 875.394ZM-869.216 898.487L-861.592 885.299L-839.619 905.516L-846.678 918.133L-869.216 898.487ZM-843.265 921.108L-836.267 908.6L-814.767 928.382L-821.233 940.312L-843.265 921.108ZM-262.561 1427.28L-311.282 1384.81C-298.509 1387.7 -284.571 1383.89 -275.068 1373.62L491.466 544.925C498.623 537.176 502.242 526.704 501.364 516.21C500.582 506.789 496.299 498.048 489.314 491.621L-207.133 -149.172L-202.747 -157.517L550.718 499.244C557.52 505.162 561.654 513.35 562.398 522.323L562.418 522.32C563.211 531.681 560.204 540.756 554.005 547.83L-213.837 1424C-226.391 1438.3 -248.223 1439.77 -262.561 1427.28ZM-206.197 -160.525L-210.524 -152.292L-219.541 -160.589L-215.283 -168.445L-206.197 -160.525ZM-218.704 -171.427L-222.902 -163.681L-231.811 -171.877L-227.684 -179.254L-218.704 -171.427ZM-231.097 -182.229L-235.163 -174.962L-243.949 -183.046L-239.957 -189.952L-231.097 -182.229ZM-243.378 -192.934L-247.308 -186.136L-255.975 -194.111L-252.121 -200.554L-243.378 -192.934ZM-255.515 -203.513L-259.306 -197.176L-267.843 -205.03L-264.129 -211.022L-255.515 -203.513ZM-267.519 -213.976L-271.167 -208.089L-279.535 -215.788L-275.965 -221.339L-267.519 -213.976ZM-279.36 -224.298L-282.863 -218.85L-291.086 -226.416L-287.664 -231.536L-279.36 -224.298ZM-291.037 -234.476L-294.39 -229.456L-302.453 -236.875L-299.891 -240.558C-299.655 -240.898 -299.414 -241.233 -299.169 -241.564L-291.037 -234.476ZM-303.522 -243.074L-305.734 -239.893L-313.539 -247.074C-312.403 -248.443 -311.185 -249.724 -309.893 -250.912L-302.509 -244.475C-302.854 -244.016 -303.192 -243.549 -303.522 -243.074ZM-313.252 -253.84C-314.501 -252.663 -315.687 -251.407 -316.801 -250.076L-323.647 -256.375C-322.307 -257.433 -320.907 -258.391 -319.457 -259.249L-313.252 -253.84ZM-322.952 -262.295C-324.328 -261.416 -325.66 -260.452 -326.941 -259.405L-332.404 -264.433C-330.827 -265.171 -329.204 -265.795 -327.549 -266.301C-327.509 -266.267 -327.469 -266.232 -327.43 -266.198L-322.952 -262.295ZM-331.867 -269.482C-333.238 -268.945 -334.585 -268.333 -335.899 -267.648L-339.338 -270.812C-338.465 -270.958 -337.582 -271.071 -336.692 -271.153C-336.161 -271.201 -335.631 -271.238 -335.102 -271.264C-334.001 -270.732 -332.92 -270.138 -331.867 -269.482ZM-1134.9 672.783C-1137.54 678.362 -1138.67 684.553 -1138.15 690.865C-1137.35 700.461 -1132.83 709.153 -1125.39 715.304L-1122.14 717.993C-1121.36 716.748 -1120.5 715.538 -1119.57 714.369L-1106.34 697.682L-1134.9 672.783ZM-1102.99 700.602L-1116.09 717.121C-1117.04 718.317 -1117.91 719.562 -1118.7 720.849L-1089.5 745.027L-1074.59 725.35L-1102.99 700.602ZM-1071.24 728.274L-1086.08 747.861L-1057.69 771.374L-1043.79 752.201L-1071.24 728.274ZM-1040.43 755.131L-1054.27 774.212L-1026.81 796.949L-1013.85 778.301L-1040.43 755.131ZM-1010.49 781.229L-1023.39 799.784L-996.791 821.815L-984.695 803.711L-1010.49 781.229ZM-981.332 806.641L-993.366 824.652L-967.567 846.019L-956.285 828.474L-981.332 806.641ZM-952.908 831.417L-964.129 848.867L-939.061 869.629L-928.542 852.656L-952.908 831.417ZM-925.155 855.609L-935.613 872.485L-911.235 892.676L-901.432 876.287L-925.155 855.609ZM-898.022 879.259L-907.766 895.549L-884.017 915.219L-874.886 899.426L-898.022 879.259ZM-871.477 902.397L-880.55 918.091L-857.387 937.275L-848.889 922.086L-871.477 902.397ZM-845.476 925.061L-853.917 940.149L-831.298 958.883L-823.398 944.306L-845.476 925.061ZM-819.977 947.288L-827.822 961.762L-805.723 980.066L-798.386 966.108L-819.977 947.288ZM-252.85 1437.98L-199.651 1482.04C-184.519 1494.57 -161.978 1492.48 -149.386 1477.38L619.764 553.737C625.768 546.53 628.652 537.412 627.881 528.068L627.864 528.09C627.057 518.474 622.547 509.802 615.101 503.631L-196.803 -168.825L-200.627 -161.551L553.646 495.916C561.294 502.594 565.995 511.833 566.826 521.958C567.695 532.532 564.321 542.756 557.331 550.74L-210.509 1426.92C-221.305 1439.24 -238.243 1443.11 -252.85 1437.98ZM-204.077 -164.558L-200.309 -171.728L-209.416 -179.271L-213.119 -172.439L-204.077 -164.558ZM-216.54 -175.421L-212.892 -182.15L-221.893 -189.605L-225.472 -183.207L-216.54 -175.421ZM-228.885 -186.182L-225.363 -192.479L-234.244 -199.834L-237.696 -193.862L-228.885 -186.182ZM-241.117 -196.844L-237.723 -202.716L-246.486 -209.974L-249.808 -204.42L-241.117 -196.844ZM-253.203 -207.379L-249.939 -212.834L-258.574 -219.986L-261.763 -214.84L-253.203 -207.379ZM-265.152 -217.795L-262.024 -222.843L-270.489 -229.854L-273.542 -225.107L-265.152 -217.795ZM-276.937 -228.067L-273.947 -232.718L-282.107 -239.477C-283.001 -238.391 -283.845 -237.253 -284.636 -236.068L-285.181 -235.253L-276.937 -228.067ZM-288.553 -238.192L-288.338 -238.516C-287.456 -239.833 -286.515 -241.096 -285.52 -242.303L-292.824 -248.353C-294.057 -247.305 -295.231 -246.179 -296.34 -244.979L-288.553 -238.192ZM-299.673 -247.885C-298.596 -249.058 -297.463 -250.169 -296.277 -251.213L-302.425 -256.305C-303.805 -255.539 -305.137 -254.69 -306.415 -253.761L-299.673 -247.885ZM-309.835 -256.742C-308.623 -257.668 -307.365 -258.528 -306.064 -259.319L-310.593 -263.07C-312.158 -262.619 -313.697 -262.068 -315.199 -261.418L-309.835 -256.742ZM-318.854 -264.604C-317.615 -265.214 -316.351 -265.761 -315.066 -266.246C-316.072 -266.851 -317.104 -267.403 -318.158 -267.902C-319.51 -267.847 -320.858 -267.718 -322.195 -267.517L-318.854 -264.604ZM-1123.93 742.972C-1124.45 736.698 -1123.36 730.488 -1120.82 724.859L-1092.19 748.571L-1105.7 766.402C-1106.63 767.625 -1107.48 768.891 -1108.26 770.194L-1110.05 768.787C-1118.02 762.486 -1123.08 753.075 -1123.93 742.972ZM-1102.15 769.066L-1088.77 751.405L-1060.31 774.977L-1075.55 796.005L-1104.75 772.971C-1103.97 771.624 -1103.1 770.32 -1102.15 769.066ZM-1072.07 798.758L-1056.88 777.816L-1029.36 800.609L-1043.66 821.173L-1072.07 798.758ZM-1040.18 823.922L-1025.94 803.444L-999.272 825.529L-1012.69 845.611L-1040.18 823.922ZM-1009.21 848.36L-995.847 828.365L-969.988 849.784L-982.581 869.37L-1009.21 848.36ZM-979.086 872.128L-966.55 852.632L-941.424 873.442L-953.246 892.518L-979.086 872.128ZM-949.742 895.283L-937.976 876.298L-913.544 896.535L-924.642 915.089L-949.742 895.283ZM-921.118 917.871L-910.074 899.408L-886.273 919.122L-896.692 937.145L-921.118 917.871ZM-893.172 939.922L-882.806 921.993L-859.593 941.22L-869.373 958.702L-893.172 939.922ZM-865.851 961.481L-856.124 944.093L-833.457 962.867L-842.635 979.801L-865.851 961.481ZM-839.107 982.585L-829.981 965.746L-807.837 984.088L-816.446 1000.47L-839.107 982.585ZM-812.897 1003.27L-804.338 986.985L-216.225 1474.1L-812.897 1003.27ZM-136.739 1536.82L-196.848 1489.39C-180.255 1498.9 -158.626 1495.42 -145.988 1480.24L623.163 556.598C629.92 548.487 633.153 538.24 632.292 527.725C631.394 516.919 626.311 507.156 617.942 500.235L-194.692 -172.841L-191.36 -179.18L679.501 507.995C687.475 514.296 692.531 523.688 693.362 533.813L693.381 533.811C694.151 543.135 691.374 552.318 685.544 559.661L-84.9174 1530.76C-97.5416 1546.69 -120.792 1549.4 -136.739 1536.82ZM-194.916 -181.986L-198.197 -175.744L-207.26 -183.25L-204.042 -189.187L-194.916 -181.986ZM-207.57 -191.971L-210.736 -186.129L-219.689 -193.545L-216.589 -199.087L-207.57 -191.971ZM-220.111 -201.867L-223.159 -196.418L-231.99 -203.733L-229.009 -208.888L-220.111 -201.867ZM-232.543 -211.676L-235.469 -206.614L-244.18 -213.829L-241.323 -218.605L-232.543 -211.676ZM-244.832 -221.373L-247.633 -216.69L-256.213 -223.796L-254.15 -227.124C-253.928 -227.483 -253.701 -227.838 -253.469 -228.189L-244.832 -221.373ZM-257.934 -229.443L-259.663 -226.653L-268.019 -233.574C-267.078 -234.876 -266.072 -236.117 -265.007 -237.293L-256.964 -230.946C-257.295 -230.453 -257.618 -229.952 -257.934 -229.443ZM-268.509 -240.056C-269.545 -238.899 -270.528 -237.687 -271.457 -236.422L-279.103 -242.755C-278.024 -243.813 -276.891 -244.809 -275.71 -245.738L-268.509 -240.056ZM-279.273 -248.55C-280.402 -247.619 -281.489 -246.633 -282.529 -245.593L-289.184 -251.105C-287.957 -251.927 -286.686 -252.681 -285.374 -253.364L-279.273 -248.55ZM-289.146 -256.34C-290.374 -255.629 -291.568 -254.861 -292.723 -254.036L-298.003 -258.409C-296.58 -258.979 -295.119 -259.469 -293.624 -259.874L-289.146 -256.34ZM-298.279 -263.046C-299.488 -262.609 -300.673 -262.12 -301.833 -261.581L-305.038 -264.236C-303.766 -264.407 -302.485 -264.514 -301.2 -264.556C-300.211 -264.1 -299.236 -263.597 -298.279 -263.046ZM-1106.79 777.033C-1109.21 782.68 -1110.24 788.868 -1109.73 795.081C-1108.83 805.868 -1103.38 815.761 -1094.73 822.272L-1094.43 822.494C-1093.64 821.092 -1092.76 819.729 -1091.8 818.413L-1078.17 799.612L-1106.79 777.033ZM-1074.68 802.365L-1088.2 821.011C-1089.18 822.353 -1090.06 823.75 -1090.85 825.191L-1061.72 847.143L-1046.21 824.834L-1074.68 802.365ZM-1042.72 827.582L-1058.18 849.811L-1029.79 871.205L-1015.17 849.323L-1042.72 827.582ZM-1011.69 852.071L-1026.25 873.871L-998.784 894.569L-984.999 873.13L-1011.69 852.071ZM-981.504 875.888L-995.236 897.244L-968.609 917.308L-955.604 896.324L-981.504 875.888ZM-952.1 899.089L-965.052 919.988L-939.218 939.456L-926.945 918.938L-952.1 899.089ZM-923.42 921.719L-935.641 942.151L-910.527 961.076L-898.941 941.035L-923.42 921.719ZM-895.42 943.812L-906.957 963.767L-882.512 982.188L-871.571 962.631L-895.42 943.812ZM-868.049 965.41L-878.94 984.879L-855.117 1002.83L-844.784 983.767L-868.049 965.41ZM-841.256 986.551L-851.54 1005.53L-828.308 1023.03L-818.549 1004.47L-841.256 986.551ZM-815 1007.27L-824.711 1025.74L-73.8286 1591.58C-57.0691 1604.2 -33.1286 1600.86 -20.4647 1584.16L751.306 565.588C756.963 558.129 759.652 548.878 758.883 539.553L758.866 539.575C757.973 528.808 752.516 518.895 743.884 512.382L-186.39 -188.635L-189.273 -183.152L682.257 504.551C691.193 511.597 696.847 522.135 697.793 533.468C698.666 543.922 695.537 554.215 689.011 562.435L-81.4511 1533.53C-95.59 1551.35 -121.639 1554.38 -139.493 1540.28L-815 1007.27ZM-192.829 -185.958L-189.994 -191.35L-199.136 -198.239L-201.909 -193.123L-192.829 -185.958ZM-205.437 -195.907L-202.712 -200.934L-211.747 -207.742L-214.408 -202.985L-205.437 -195.907ZM-217.93 -205.765L-215.318 -210.434L-224.232 -217.151L-226.778 -212.747L-217.93 -205.765ZM-230.312 -215.535L-227.816 -219.852L-236.439 -226.349C-237.318 -225.158 -238.144 -223.918 -238.915 -222.631L-239.04 -222.422L-230.312 -215.535ZM-242.547 -225.19C-241.745 -226.511 -240.888 -227.788 -239.979 -229.017L-247.93 -235.009C-248.953 -233.979 -249.931 -232.892 -250.86 -231.749L-242.547 -225.19ZM-254.343 -234.497C-253.437 -235.614 -252.489 -236.682 -251.502 -237.7L-258.615 -243.061C-259.737 -242.237 -260.819 -241.359 -261.858 -240.427L-254.343 -234.497ZM-265.397 -243.219C-264.403 -244.139 -263.372 -245.014 -262.306 -245.842L-268.324 -250.377C-269.563 -249.77 -270.768 -249.104 -271.936 -248.38L-265.397 -243.219ZM-275.606 -251.276C-274.514 -252.006 -273.389 -252.69 -272.236 -253.325L-276.689 -256.68C-278.095 -256.321 -279.473 -255.889 -280.818 -255.388L-275.606 -251.276ZM-284.812 -258.54C-283.733 -259.016 -282.632 -259.45 -281.511 -259.842C-282.438 -260.355 -283.38 -260.825 -284.334 -261.253C-285.523 -261.217 -286.716 -261.128 -287.91 -260.984L-284.812 -258.54ZM-1095.54 847.212C-1096.05 841.063 -1095.09 834.924 -1092.8 829.283L-1064.26 850.789L-1077.91 870.423C-1078.9 871.852 -1079.81 873.332 -1080.62 874.856C-1089.22 868.123 -1094.63 858.133 -1095.54 847.212ZM-1074.28 872.958L-1060.72 853.457L-1032.26 874.901L-1047.98 898.434L-1077.01 877.5C-1076.2 875.934 -1075.29 874.416 -1074.28 872.958ZM-1044.39 901.023L-1028.72 877.567L-1001.19 898.312L-1016.07 921.45L-1044.39 901.023ZM-1012.47 924.045L-997.642 900.986L-970.956 921.096L-985.042 943.825L-1012.47 924.045ZM-981.437 946.426L-967.4 923.776L-941.509 943.285L-954.855 965.596L-981.437 946.426ZM-951.229 968.211L-937.932 945.981L-912.764 964.946L-925.414 986.828L-951.229 968.211ZM-921.797 989.436L-909.194 967.636L-884.698 986.095L-896.695 1007.54L-921.797 989.436ZM-893.077 1010.15L-881.126 988.786L-857.254 1006.78L-868.635 1027.78L-893.077 1010.15ZM-865.014 1030.39L-853.678 1009.47L-830.399 1027.01L-841.2 1047.56L-865.014 1030.39ZM-837.559 1050.19L-826.802 1029.72L-76.473 1595.13C-57.7704 1609.23 -31.0412 1605.51 -16.9112 1586.84L754.859 568.271C761.174 559.94 764.179 549.605 763.314 539.208C762.318 527.172 756.205 516.121 746.57 508.848L-184.304 -192.605L-181.835 -197.302L808.284 516.747C817.594 523.47 823.468 533.881 824.426 545.311C825.195 554.635 822.59 563.934 817.087 571.512L44.0078 1637.55C31.3091 1655.07 6.65894 1659.03 -10.8961 1646.35L-837.559 1050.19ZM-185.483 -199.933L-187.908 -195.32L-197.003 -202.174L-194.639 -206.536L-185.483 -199.933ZM-198.261 -209.148L-200.579 -204.869L-209.566 -211.641L-208.444 -213.646C-208.064 -214.324 -207.671 -214.989 -207.264 -215.641L-198.261 -209.148ZM-212.307 -215.817L-213.137 -214.332L-221.909 -220.942C-221.11 -222.128 -220.262 -223.271 -219.367 -224.37L-210.866 -218.239C-211.365 -217.449 -211.845 -216.641 -212.307 -215.817ZM-222.981 -226.976C-223.851 -225.897 -224.681 -224.779 -225.469 -223.624L-233.641 -229.782C-232.746 -230.778 -231.81 -231.731 -230.835 -232.64L-222.981 -226.976ZM-234.495 -235.279C-235.429 -234.377 -236.329 -233.437 -237.194 -232.46L-244.597 -238.038C-243.601 -238.855 -242.574 -239.624 -241.519 -240.345L-234.495 -235.279ZM-245.317 -243.084C-246.314 -242.355 -247.286 -241.585 -248.231 -240.776L-254.672 -245.63C-253.571 -246.264 -252.439 -246.849 -251.28 -247.384L-245.317 -243.084ZM-255.353 -250.322C-256.425 -249.758 -257.473 -249.154 -258.495 -248.511L-263.585 -252.346C-262.325 -252.782 -261.039 -253.159 -259.729 -253.477L-255.353 -250.322ZM-264.7 -256.633C-265.733 -256.285 -266.75 -255.902 -267.751 -255.485L-270.753 -257.748C-269.644 -257.865 -268.535 -257.937 -267.43 -257.964C-266.506 -257.557 -265.595 -257.113 -264.7 -256.633ZM-1078.85 881.628C-1080.99 887.239 -1081.88 893.296 -1081.38 899.327C-1080.47 910.294 -1075.21 920.273 -1066.81 927.194C-1065.98 925.568 -1065.05 923.979 -1064.02 922.434L-1050.44 902.117L-1078.85 881.628ZM-1046.85 904.706L-1060.34 924.884C-1061.41 926.497 -1062.37 928.161 -1063.2 929.869L-1034.32 949.84L-1018.47 925.179L-1046.85 904.706ZM-1014.87 927.774L-1030.68 952.361L-1002.44 971.892L-987.38 947.598L-1014.87 927.774ZM-983.774 950.198L-998.784 974.418L-971.443 993.327L-957.136 969.409L-983.774 950.198ZM-953.51 972.024L-967.771 995.866L-941.245 1014.21L-927.641 990.679L-953.51 972.024ZM-924.024 993.288L-937.584 1016.74L-911.814 1034.57L-898.87 1011.43L-924.024 993.288ZM-895.253 1014.04L-908.153 1037.1L-883.084 1054.43L-870.762 1031.7L-895.253 1014.04ZM-867.141 1034.31L-879.42 1056.97L-855.016 1073.85L-843.28 1051.52L-867.141 1034.31ZM-839.64 1054.14L-851.334 1076.39L52.0162 1701.13C60.9171 1707.28 71.681 1709.62 82.3568 1707.69C93.0133 1705.77 102.292 1699.82 108.477 1690.93L882.867 577.436C888.218 569.74 890.754 560.37 889.968 551.068L889.985 551.046C888.98 538.932 882.668 528.024 872.684 521.111L-177.645 -205.264C-177.75 -205.071 -177.853 -204.877 -177.955 -204.682L-179.754 -201.26L810.885 513.164C821.256 520.639 827.79 532.209 828.854 544.946C829.715 555.303 826.812 565.666 820.688 574.11L47.6071 1640.13C33.4641 1659.63 6.05216 1664.03 -13.4969 1649.94L-839.64 1054.14ZM-183.403 -203.891L-181.903 -206.744C-181.715 -207.102 -181.523 -207.458 -181.328 -207.811L-190.248 -213.979C-191.042 -212.84 -191.792 -211.662 -192.495 -210.448L-183.403 -203.891ZM-196.103 -213.05C-195.406 -214.232 -194.667 -215.382 -193.89 -216.498L-202.268 -222.292C-203.13 -221.33 -203.959 -220.327 -204.75 -219.286L-196.103 -213.05ZM-208.348 -221.881C-207.578 -222.899 -206.776 -223.884 -205.943 -224.834L-213.707 -230.202C-214.635 -229.4 -215.532 -228.56 -216.395 -227.684L-208.348 -221.881ZM-220.041 -230.313C-219.212 -231.175 -218.355 -232.006 -217.471 -232.806L-224.429 -237.618C-225.428 -236.977 -226.4 -236.297 -227.344 -235.58L-220.041 -230.313ZM-231.088 -238.28C-230.198 -238.994 -229.284 -239.677 -228.347 -240.328L-234.213 -244.384C-235.296 -243.912 -236.361 -243.396 -237.407 -242.837L-231.088 -238.28ZM-241.362 -245.69C-240.399 -246.259 -239.418 -246.794 -238.422 -247.295L-242.751 -250.289C-243.977 -250.008 -245.182 -249.678 -246.366 -249.298L-241.362 -245.69ZM-250.73 -252.446C-249.805 -252.812 -248.867 -253.15 -247.915 -253.46C-248.758 -253.897 -249.613 -254.303 -250.479 -254.677C-251.513 -254.658 -252.549 -254.601 -253.585 -254.505L-250.73 -252.446ZM-1067.22 951.441C-1067.72 945.434 -1066.94 939.542 -1064.95 934.012L-1036.71 953.546L-1050.14 974.446C-1051.2 976.094 -1052.15 977.786 -1052.98 979.518C-1061.19 972.424 -1066.31 962.448 -1067.22 951.441ZM-1046.41 976.831L-1033.06 956.067L-1004.76 975.641L-1020.7 1001.37L-1048.74 982.744C-1048.96 982.596 -1049.18 982.446 -1049.4 982.295C-1048.54 980.422 -1047.55 978.598 -1046.41 976.831ZM-1017.01 1003.83L-1001.11 978.166L-973.709 997.115L-988.896 1022.5L-1017.01 1003.83ZM-985.181 1024.97L-970.037 999.654L-943.457 1018.04L-957.933 1043.08L-985.181 1024.97ZM-954.231 1045.54L-939.796 1020.57L-913.975 1038.43L-927.783 1063.11L-954.231 1045.54ZM-924.081 1065.57L-910.314 1040.96L-885.196 1058.33L-898.375 1082.65L-924.081 1065.57ZM-894.672 1085.11L-881.533 1060.87L-857.082 1077.78L-869.668 1101.72L-894.672 1085.11ZM-865.948 1104.19L-853.4 1080.32L49.4812 1704.77C59.3559 1711.6 71.3135 1714.18 83.1459 1712.05C94.9952 1709.89 105.274 1703.28 112.127 1693.45L886.517 579.949C892.451 571.41 895.252 561.022 894.394 550.683C893.28 537.243 886.284 525.141 875.2 517.48L-175.361 -209.084C-174.667 -210.139 -173.936 -211.164 -173.172 -212.157L937.067 525.498C947.745 532.599 954.494 544.003 955.547 556.801L955.53 556.823C956.333 566.261 953.932 575.456 948.647 583.36L172.949 1744.33C166.733 1753.6 157.305 1759.92 146.346 1762.1C135.386 1764.28 124.227 1762.08 114.929 1755.91L-865.948 1104.19ZM-176.888 -214.627C-177.631 -213.651 -178.343 -212.647 -179.024 -211.618L-187.545 -217.511C-186.786 -218.415 -185.996 -219.29 -185.178 -220.134L-176.888 -214.627ZM-188.923 -222.623C-189.708 -221.788 -190.468 -220.926 -191.201 -220.039L-199.103 -225.505C-198.278 -226.267 -197.429 -226.997 -196.559 -227.696L-188.923 -222.623ZM-200.421 -230.262C-201.246 -229.564 -202.051 -228.838 -202.835 -228.085L-210.037 -233.067C-209.152 -233.689 -208.243 -234.281 -207.314 -234.842L-200.421 -230.262ZM-211.365 -237.533C-212.231 -236.962 -213.079 -236.365 -213.907 -235.743L-220.138 -240.052C-219.17 -240.534 -218.183 -240.982 -217.178 -241.395L-211.365 -237.533ZM-221.54 -244.293C-222.456 -243.853 -223.358 -243.385 -224.243 -242.891L-229.102 -246.251C-228.003 -246.579 -226.893 -246.864 -225.773 -247.106L-221.54 -244.293ZM-231.087 -250.266C-231.944 -249.997 -232.795 -249.704 -233.637 -249.388L-236.355 -251.268C-235.412 -251.341 -234.469 -251.384 -233.528 -251.396C-232.705 -251.046 -231.891 -250.67 -231.087 -250.266ZM-1051.06 986.508C-1052.88 991.945 -1053.58 997.697 -1053.1 1003.54C-1052.18 1014.58 -1047.19 1024.58 -1039.15 1031.83C-1038.3 1029.99 -1037.34 1028.2 -1036.25 1026.46L-1023.04 1005.13L-1051.06 986.508ZM-1019.34 1007.59L-1032.49 1028.8C-1033.67 1030.71 -1034.7 1032.69 -1035.57 1034.72C-1034.87 1035.24 -1034.14 1035.73 -1033.4 1036.21L-1007.14 1053L-991.169 1026.3L-1019.34 1007.59ZM-987.455 1028.77L-1003.38 1055.4L-975.399 1073.29L-960.151 1046.91L-987.455 1028.77ZM-956.449 1049.37L-971.658 1075.68L-944.522 1093.03L-929.949 1066.98L-956.449 1049.37ZM-926.247 1069.44L-940.782 1095.42L-914.43 1112.27L-900.492 1086.55L-926.247 1069.44ZM-896.788 1089.01L-910.689 1114.66L-885.078 1131.04L-871.738 1105.66L-896.788 1089.01ZM-868.017 1108.13L-881.321 1133.44L177.878 1810.67C197.893 1823.46 224.591 1817.63 237.434 1797.67L1014.44 589.243C1019.6 581.236 1021.91 571.993 1021.12 562.514L1021.13 562.533C1020.01 549.054 1012.84 537.151 1001.45 529.864L-168.034 -217.873C-168.821 -217.122 -169.585 -216.344 -170.323 -215.541L939.478 521.821C951.317 529.682 958.753 542.3 959.936 556.441C960.79 566.898 958.175 577.046 952.329 585.811L176.609 1746.76C169.771 1757.03 159.304 1764.02 147.193 1766.44C135.079 1768.85 122.729 1766.43 112.459 1759.6L-868.017 1108.13ZM-174.073 -218.033C-173.366 -218.822 -172.636 -219.59 -171.885 -220.336L-179.462 -225.18C-180.292 -224.555 -181.102 -223.903 -181.891 -223.227L-174.073 -218.033ZM-185.709 -225.764C-184.963 -226.433 -184.199 -227.082 -183.417 -227.709L-190.171 -232.027C-191.049 -231.529 -191.913 -231.003 -192.761 -230.449L-185.709 -225.764ZM-196.752 -233.101C-195.965 -233.657 -195.164 -234.189 -194.35 -234.699L-200.111 -238.382C-201.058 -238.014 -201.99 -237.615 -202.905 -237.189L-196.752 -233.101ZM-207.166 -240.02C-206.335 -240.46 -205.491 -240.878 -204.633 -241.274L-208.815 -243.948C-209.495 -243.807 -210.173 -243.651 -210.85 -243.48C-211.215 -243.388 -211.578 -243.292 -211.94 -243.192L-207.166 -240.02ZM-216.662 -246.329C-215.886 -246.606 -215.102 -246.864 -214.309 -247.104C-215.053 -247.465 -215.804 -247.803 -216.563 -248.119C-217.449 -248.114 -218.332 -248.082 -219.214 -248.025L-216.662 -246.329ZM-1038.97 1055.68C-1039.44 1050 -1038.82 1044.38 -1037.17 1039.05C-1036.72 1039.36 -1036.26 1039.66 -1035.8 1039.96L-1009.43 1056.82L-1022.36 1078.45C-1023.47 1080.3 -1024.45 1082.21 -1025.3 1084.16C-1033.11 1076.73 -1038.06 1066.58 -1038.97 1055.68ZM-1018.54 1080.74L-1005.67 1059.22L-977.632 1077.15L-993.616 1104.8L-1018.07 1089.73C-1019.34 1088.95 -1020.57 1088.1 -1021.75 1087.2C-1020.86 1084.98 -1019.79 1082.83 -1018.54 1080.74ZM-989.838 1107.13L-973.891 1079.54L-946.701 1096.93L-962.004 1124.28L-989.838 1107.13ZM-958.228 1126.61L-942.961 1099.32L-916.558 1116.2L-931.219 1143.25L-958.228 1126.61ZM-927.443 1145.58L-912.818 1118.59L-887.158 1135L-901.215 1161.74L-927.443 1145.58ZM-897.424 1164.08L-883.401 1137.4L175.474 1814.4C197.546 1828.49 227.008 1822.07 241.166 1800.05L1018.18 591.627C1023.87 582.783 1026.43 572.603 1025.55 562.149C1024.32 547.285 1016.4 534.156 1003.83 526.113L-164.553 -220.905C-163.821 -221.486 -163.073 -222.046 -162.309 -222.586L1065.81 534.215C1077.74 541.571 1085.54 554.3 1086.71 568.266C1087.49 577.746 1085.25 587.059 1080.22 595.167L301.886 1851.07C295.672 1861.12 285.862 1868.16 274.321 1870.89C262.8 1873.61 250.888 1871.69 240.793 1865.46L-897.424 1164.08ZM-166.397 -225.105C-167.111 -224.563 -167.812 -224.004 -168.499 -223.428L-175.472 -227.886C-174.697 -228.358 -173.908 -228.809 -173.106 -229.239L-166.397 -225.105ZM-177.401 -231.886C-178.139 -231.445 -178.865 -230.987 -179.579 -230.513L-185.553 -234.332C-184.718 -234.694 -183.874 -235.034 -183.021 -235.349L-177.401 -231.886ZM-187.701 -238.233C-188.467 -237.893 -189.225 -237.535 -189.975 -237.159L-194.642 -240.143C-193.707 -240.383 -192.769 -240.594 -191.829 -240.777L-187.701 -238.233ZM-197.515 -243.941C-198.205 -243.738 -198.89 -243.522 -199.567 -243.292L-201.978 -244.833C-201.221 -244.874 -200.464 -244.895 -199.709 -244.898C-198.972 -244.6 -198.241 -244.281 -197.515 -243.941ZM-1023.26 1091.59C-1024.76 1096.82 -1025.3 1102.29 -1024.84 1107.82C-1023.94 1118.75 -1019.1 1128.91 -1011.44 1136.49C-1010.58 1134.43 -1009.58 1132.41 -1008.45 1130.46L-995.83 1108.63L-1020.39 1093.49C-1021.37 1092.89 -1022.33 1092.25 -1023.26 1091.59ZM-992.052 1110.96L-1004.62 1132.69C-1005.91 1134.93 -1007.01 1137.25 -1007.91 1139.63C-1006.27 1140.95 -1004.53 1142.16 -1002.7 1143.25L-980.128 1156.68L-964.164 1128.14L-992.052 1110.96ZM-960.388 1130.47L-976.318 1158.94L-948.644 1175.4L-933.329 1147.14L-960.388 1130.47ZM-929.553 1149.47L-944.835 1177.67L-917.982 1193.64L-903.277 1165.66L-929.553 1149.47ZM-899.485 1168L-914.158 1195.91L303.747 1920.26C314.234 1926.48 326.525 1928.27 338.349 1925.29C350.192 1922.31 360.151 1914.89 366.414 1904.44L1146.04 601.086C1150.95 592.874 1153.14 583.51 1152.34 574.011L1152.32 573.994C1151.11 559.324 1142.83 546.084 1130.18 538.562L-155.981 -226.394C-156.718 -226.021 -157.444 -225.63 -158.159 -225.223L1068.15 530.448C1081.27 538.52 1089.85 552.531 1091.13 567.882C1092 578.317 1089.53 588.545 1084 597.467L305.665 1853.35C298.811 1864.43 288.025 1872.17 275.336 1875.16C262.627 1878.15 249.528 1876.05 238.447 1869.19L-899.485 1168ZM-162.422 -227.85C-161.768 -228.261 -161.104 -228.658 -160.431 -229.042L-166.006 -232.357C-166.787 -232.084 -167.558 -231.793 -168.319 -231.484L-162.422 -227.85ZM-172.888 -234.3C-172.21 -234.622 -171.524 -234.931 -170.83 -235.226L-174.811 -237.594C-175.667 -237.438 -176.519 -237.26 -177.366 -237.058L-172.888 -234.3ZM-182.499 -240.222C-181.897 -240.417 -181.292 -240.601 -180.683 -240.774C-181.351 -241.079 -182.024 -241.368 -182.702 -241.64C-183.381 -241.642 -184.06 -241.63 -184.74 -241.603L-182.499 -240.222ZM-1010.76 1159.94C-1011.21 1154.58 -1010.72 1149.24 -1009.36 1144.12C-1007.96 1145.16 -1006.51 1146.13 -1005 1147.03L-982.289 1160.54L-994.555 1182.47C-995.713 1184.53 -996.724 1186.65 -997.586 1188.82C-1005.11 1181.11 -1009.84 1170.94 -1010.76 1159.94ZM-990.692 1184.64L-978.479 1162.81L-950.755 1179.3L-966.661 1208.65L-987.383 1196.73C-989.766 1195.37 -992.002 1193.8 -994.074 1192.07C-993.165 1189.52 -992.036 1187.04 -990.692 1184.64ZM-962.821 1210.85L-946.946 1181.56L-920.044 1197.56L-935.335 1226.65L-962.821 1210.85ZM-931.481 1228.87L-916.22 1199.84L301.45 1924.06C312.942 1930.9 326.417 1932.85 339.404 1929.57C352.394 1926.31 363.328 1918.18 370.19 1906.7L1149.82 603.347C1155.2 594.326 1157.6 584.047 1156.73 573.631C1155.4 557.558 1146.33 543.039 1132.45 534.786L-151.043 -228.578C-150.356 -228.84 -149.661 -229.088 -148.959 -229.322L1194.58 542.927C1207.94 550.615 1216.68 564.369 1217.96 579.72L1217.94 579.741C1218.72 589.262 1216.6 598.677 1211.8 606.994L430.864 1957.82C417.917 1980.22 389.112 1987.94 366.66 1975.04L-931.481 1228.87ZM-153.957 -232.195C-154.575 -231.942 -155.188 -231.678 -155.794 -231.404L-160.182 -234.013C-159.423 -234.181 -158.663 -234.331 -157.902 -234.462L-153.957 -232.195ZM-164.97 -237.337C-165.147 -237.284 -165.323 -237.23 -165.499 -237.176L-167.489 -238.359C-166.905 -238.376 -166.32 -238.382 -165.735 -238.377C-165.135 -238.141 -164.539 -237.892 -163.947 -237.63C-164.289 -237.536 -164.629 -237.438 -164.97 -237.337ZM-995.445 1196.63C-996.687 1201.65 -997.109 1206.85 -996.673 1212.07C-995.76 1223.11 -991.118 1233.31 -983.718 1241.15C-982.856 1238.87 -981.836 1236.64 -980.662 1234.48L-968.763 1212.52L-989.6 1200.54C-991.651 1199.36 -993.602 1198.06 -995.445 1196.63ZM-964.922 1214.73L-976.767 1236.59C-978.152 1239.14 -979.302 1241.79 -980.211 1244.51C-977.72 1246.66 -974.987 1248.58 -972.042 1250.22L-953.223 1260.68L-937.388 1230.56L-964.922 1214.73ZM-933.534 1232.77L-949.34 1262.84L429.572 2029.81C440.855 2036.09 453.897 2037.59 466.324 2034.08C478.75 2030.57 489.051 2022.43 495.351 2011.18L1277.6 612.895C1282.29 604.494 1284.36 595.026 1283.58 585.466C1282.25 569.412 1273.05 555.126 1258.97 547.294L-140.916 -231.309C-141.586 -231.2 -142.254 -231.077 -142.922 -230.94L1196.78 539.12C1211.41 547.533 1220.97 562.583 1222.35 579.379C1223.2 589.797 1220.9 600.103 1215.63 609.208L434.693 1960.04C420.516 1984.54 388.988 1993.02 364.428 1978.89L-933.534 1232.77ZM-148.457 -234.122L-150.3 -235.182C-149.823 -235.19 -149.346 -235.191 -148.87 -235.185C-148.295 -234.965 -147.723 -234.732 -147.154 -234.488C-147.589 -234.371 -148.023 -234.249 -148.457 -234.122ZM-982.59 1264.17C-983.002 1259.12 -982.637 1254.07 -981.521 1249.18C-979.246 1251 -976.805 1252.64 -974.212 1254.08L-955.285 1264.61L-966.788 1286.49C-967.975 1288.75 -969 1291.08 -969.858 1293.46C-977.129 1285.5 -981.677 1275.27 -982.59 1264.17ZM-962.842 1288.53L-951.402 1266.77L427.457 2033.65C439.757 2040.49 454.003 2042.15 467.569 2038.3C481.137 2034.47 492.389 2025.59 499.267 2013.3L1281.52 615.02C1286.64 605.854 1288.89 595.496 1288.03 585.08C1286.57 567.544 1276.53 551.964 1261.13 543.412L-132.966 -231.976C-132.624 -231.978 -132.282 -231.976 -131.941 -231.971C-129.883 -231.19 -127.863 -230.268 -125.894 -229.207L1323.32 551.644C1338.16 559.638 1347.84 574.415 1349.22 591.192L1349.22 591.211C1350.02 600.769 1348 610.31 1343.4 618.798L559.84 2064.56C546.823 2088.58 516.621 2097.56 492.524 2084.59L-956.7 1303.7C-960.22 1301.81 -963.449 1299.53 -966.347 1296.94C-965.438 1294.05 -964.268 1291.24 -962.842 1288.53ZM-967.599 1301.71C-964.899 1303.93 -961.959 1305.91 -958.805 1307.61L490.438 2088.5C516.674 2102.64 549.592 2092.84 563.773 2066.66L1347.33 620.901C1352.35 611.65 1354.51 601.243 1353.67 590.825C1352.14 572.569 1341.6 556.461 1325.45 547.767L-117.055 -229.486C-114.341 -228.602 -111.682 -227.484 -109.104 -226.133L1387.69 556.033C1403.25 564.151 1413.41 579.459 1414.86 596.937L1414.88 596.934C1415.68 606.511 1413.72 616.122 1409.21 624.697L624.346 2117.91C618.009 2129.95 607.365 2138.81 594.358 2142.87C581.331 2146.92 567.532 2145.68 555.456 2139.37L-941.353 1357.22C-956.894 1349.08 -967.054 1333.79 -968.505 1316.3C-968.916 1311.39 -968.605 1306.48 -967.599 1301.71Z" fill="#FF745D" fill-opacity="0.15"/>
</g>
<defs>
<clipPath id="clip0_903_103">
<rect width="1600" height="964.811" fill="white"/>
</clipPath>
</defs>
</svg>
