<svg width="3126" height="1885" viewBox="0 0 3126 1885" fill="none" xmlns="http://www.w3.org/2000/svg">
<mask id="mask0_864_376" style="mask-type:luminance" maskUnits="userSpaceOnUse" x="900" y="403" width="2226" height="1362">
<path d="M3126 403H900V1765H3126V403Z" fill="white"/>
</mask>
<g mask="url(#mask0_864_376)">
<path d="M3496.44 1217.48C3445.43 1133.2 3387 1051.48 3309.64 986.276C3232.29 921.071 3134.35 873.06 3029.73 866.08C2925.1 859.1 2814.36 897.576 2753.15 975.891C2719.38 1018.96 2702.32 1070.72 2680.8 1119.92C2659.28 1169.12 2631.09 1218.67 2583.23 1248.29C2535.37 1277.91 2463.39 1280.47 2424.62 1241.14C2382.33 1198.07 2394.94 1126.56 2355.62 1081.11C2311.47 1030.03 2226.7 1035.99 2156.58 1046.72C2086.46 1057.44 2001.87 1063.91 1957.16 1013.35C1921.36 972.827 1930.82 908.642 1969.59 870.506C2008.36 832.37 2069.21 818.24 2125.78 823.177C2182.36 828.114 2235.6 849.566 2285.87 873.741C2350.05 904.557 2425 941.16 2490.29 912.729C2526.46 897.066 2550.21 864.037 2564.68 829.817C2579.15 795.597 2586.2 759.163 2599.18 724.432C2640.73 613.599 2747.95 525.75 2872.61 500.213C2967.4 480.804 3070.54 494.935 3158.65 457.65C3229.69 427.686 3280.34 368.609 3328.01 311.746L3496.44 1217.48Z" fill="#55234C"/>
</g>
</svg>
