<svg width="4221" height="1080" viewBox="0 0 4221 1080" fill="none" xmlns="http://www.w3.org/2000/svg">
<path d="M1307.76 709V661.064L1305.62 652.076V570.328C1305.62 552.923 1300.48 539.512 1290.21 530.096C1280.23 520.395 1265.1 515.544 1244.84 515.544C1231.43 515.544 1218.31 517.827 1205.47 522.392C1192.63 526.672 1181.79 532.521 1172.94 539.94L1155.82 509.124C1167.52 499.708 1181.5 492.575 1197.76 487.724C1214.31 482.588 1231.58 480.02 1249.55 480.02C1280.65 480.02 1304.62 487.581 1321.46 502.704C1338.29 517.827 1346.71 540.939 1346.71 572.04V709H1307.76ZM1233.29 711.568C1216.45 711.568 1201.62 708.715 1188.78 703.008C1176.22 697.301 1166.52 689.455 1159.67 679.468C1152.82 669.196 1149.4 657.64 1149.4 644.8C1149.4 632.531 1152.25 621.403 1157.96 611.416C1163.95 601.429 1173.51 593.44 1186.64 587.448C1200.05 581.456 1218.02 578.46 1240.56 578.46H1312.47V607.992H1242.28C1221.73 607.992 1207.89 611.416 1200.76 618.264C1193.63 625.112 1190.06 633.387 1190.06 643.088C1190.06 654.216 1194.48 663.204 1203.33 670.052C1212.17 676.615 1224.44 679.896 1240.14 679.896C1255.54 679.896 1268.95 676.472 1280.37 669.624C1292.07 662.776 1300.48 652.789 1305.62 639.664L1313.75 667.912C1308.33 681.323 1298.77 692.023 1285.08 700.012C1271.38 707.716 1254.12 711.568 1233.29 711.568ZM1422.74 709V482.16H1463.83V709H1422.74ZM1443.29 438.504C1435.3 438.504 1428.59 435.936 1423.17 430.8C1418.04 425.664 1415.47 419.387 1415.47 411.968C1415.47 404.264 1418.04 397.844 1423.17 392.708C1428.59 387.572 1435.3 385.004 1443.29 385.004C1451.28 385.004 1457.84 387.572 1462.98 392.708C1468.4 397.559 1471.11 403.693 1471.11 411.112C1471.11 418.816 1468.54 425.379 1463.4 430.8C1458.27 435.936 1451.56 438.504 1443.29 438.504ZM1662.55 711.568C1643.72 711.568 1626.46 707.288 1610.76 698.728C1595.36 689.883 1582.94 676.9 1573.53 659.78C1564.4 642.66 1559.83 621.26 1559.83 595.58C1559.83 569.9 1564.25 548.5 1573.1 531.38C1582.23 514.26 1594.5 501.42 1609.91 492.86C1625.6 484.3 1643.15 480.02 1662.55 480.02C1684.81 480.02 1704.5 484.871 1721.62 494.572C1738.74 504.273 1752.29 517.827 1762.28 535.232C1772.26 552.352 1777.26 572.468 1777.26 595.58C1777.26 618.692 1772.26 638.951 1762.28 656.356C1752.29 673.761 1738.74 687.315 1721.62 697.016C1704.5 706.717 1684.81 711.568 1662.55 711.568ZM1542.28 792.032V482.16H1581.66V543.364L1579.09 596.008L1583.37 648.652V792.032H1542.28ZM1659.13 675.616C1673.68 675.616 1686.66 672.335 1698.08 665.772C1709.77 659.209 1718.91 649.936 1725.47 637.952C1732.32 625.683 1735.74 611.559 1735.74 595.58C1735.74 579.316 1732.32 565.335 1725.47 553.636C1718.91 541.652 1709.77 532.379 1698.08 525.816C1686.66 519.253 1673.68 515.972 1659.13 515.972C1644.86 515.972 1631.88 519.253 1620.18 525.816C1608.77 532.379 1599.64 541.652 1592.79 553.636C1586.23 565.335 1582.94 579.316 1582.94 595.58C1582.94 611.559 1586.23 625.683 1592.79 637.952C1599.64 649.936 1608.77 659.209 1620.18 665.772C1631.88 672.335 1644.86 675.616 1659.13 675.616ZM1955.15 480.02C1973.7 480.02 1989.96 483.587 2003.94 490.72C2018.21 497.853 2029.34 508.696 2037.33 523.248C2045.32 537.8 2049.31 556.204 2049.31 578.46V709H2008.22V583.168C2008.22 561.197 2002.8 544.648 1991.96 533.52C1981.4 522.392 1966.42 516.828 1947.02 516.828C1932.47 516.828 1919.77 519.681 1908.93 525.388C1898.08 531.095 1889.67 539.512 1883.67 550.64C1877.97 561.768 1875.11 575.607 1875.11 592.156V709H1834.03V391.424H1875.11V543.364L1866.98 527.1C1874.4 512.263 1885.81 500.707 1901.22 492.432C1916.63 484.157 1934.61 480.02 1955.15 480.02ZM2125.35 709V482.16H2164.73V543.792L2160.87 528.384C2167.15 512.691 2177.71 500.707 2192.55 492.432C2207.38 484.157 2225.65 480.02 2247.33 480.02V519.824C2245.62 519.539 2243.91 519.396 2242.19 519.396C2240.77 519.396 2239.34 519.396 2237.91 519.396C2215.94 519.396 2198.54 525.959 2185.7 539.084C2172.86 552.209 2166.44 571.184 2166.44 596.008V709H2125.35ZM2393.04 711.568C2370.21 711.568 2349.95 706.575 2332.26 696.588C2314.57 686.601 2300.59 672.905 2290.32 655.5C2280.05 637.809 2274.91 617.836 2274.91 595.58C2274.91 573.039 2280.05 553.065 2290.32 535.66C2300.59 518.255 2314.57 504.701 2332.26 495C2349.95 485.013 2370.21 480.02 2393.04 480.02C2415.58 480.02 2435.69 485.013 2453.39 495C2471.36 504.701 2485.34 518.255 2495.33 535.66C2505.6 552.78 2510.74 572.753 2510.74 595.58C2510.74 618.121 2505.6 638.095 2495.33 655.5C2485.34 672.905 2471.36 686.601 2453.39 696.588C2435.69 706.575 2415.58 711.568 2393.04 711.568ZM2393.04 675.616C2407.59 675.616 2420.57 672.335 2431.99 665.772C2443.68 659.209 2452.81 649.936 2459.38 637.952C2465.94 625.683 2469.22 611.559 2469.22 595.58C2469.22 579.316 2465.94 565.335 2459.38 553.636C2452.81 541.652 2443.68 532.379 2431.99 525.816C2420.57 519.253 2407.59 515.972 2393.04 515.972C2378.49 515.972 2365.5 519.253 2354.09 525.816C2342.68 532.379 2333.55 541.652 2326.7 553.636C2319.85 565.335 2316.43 579.316 2316.43 595.58C2316.43 611.559 2319.85 625.683 2326.7 637.952C2333.55 649.936 2342.68 659.209 2354.09 665.772C2365.5 672.335 2378.49 675.616 2393.04 675.616ZM2661.29 711.568C2639.32 711.568 2619.63 706.717 2602.23 697.016C2585.11 687.315 2571.56 673.761 2561.57 656.356C2551.58 638.951 2546.59 618.692 2546.59 595.58C2546.59 572.468 2551.58 552.352 2561.57 535.232C2571.56 517.827 2585.11 504.273 2602.23 494.572C2619.63 484.871 2639.32 480.02 2661.29 480.02C2680.41 480.02 2697.67 484.3 2713.08 492.86C2728.49 501.42 2740.76 514.26 2749.89 531.38C2759.31 548.5 2764.01 569.9 2764.01 595.58C2764.01 621.26 2759.45 642.66 2750.32 659.78C2741.47 676.9 2729.35 689.883 2713.94 698.728C2698.53 707.288 2680.98 711.568 2661.29 711.568ZM2664.72 675.616C2678.98 675.616 2691.82 672.335 2703.24 665.772C2714.94 659.209 2724.07 649.936 2730.63 637.952C2737.48 625.683 2740.9 611.559 2740.9 595.58C2740.9 579.316 2737.48 565.335 2730.63 553.636C2724.07 541.652 2714.94 532.379 2703.24 525.816C2691.82 519.253 2678.98 515.972 2664.72 515.972C2650.17 515.972 2637.18 519.253 2625.77 525.816C2614.36 532.379 2605.23 541.652 2598.38 553.636C2591.53 565.335 2588.11 579.316 2588.11 595.58C2588.11 611.559 2591.53 625.683 2598.38 637.952C2605.23 649.936 2614.36 659.209 2625.77 665.772C2637.18 672.335 2650.17 675.616 2664.72 675.616ZM2742.19 709V647.796L2744.75 595.152L2740.47 542.508V391.424H2781.56V709H2742.19ZM2859.3 709V482.16H2900.39V709H2859.3ZM2879.85 438.504C2871.86 438.504 2865.15 435.936 2859.73 430.8C2854.6 425.664 2852.03 419.387 2852.03 411.968C2852.03 404.264 2854.6 397.844 2859.73 392.708C2865.15 387.572 2871.86 385.004 2879.85 385.004C2887.84 385.004 2894.4 387.572 2899.54 392.708C2904.96 397.559 2907.67 403.693 2907.67 411.112C2907.67 418.816 2905.1 425.379 2899.96 430.8C2894.83 435.936 2888.12 438.504 2879.85 438.504ZM3056.74 711.568C3033.91 711.568 3016.22 705.433 3003.67 693.164C2991.11 680.895 2984.83 663.347 2984.83 640.52V432.512H3025.92V638.808C3025.92 651.077 3028.92 660.493 3034.91 667.056C3041.19 673.619 3050.03 676.9 3061.45 676.9C3074.29 676.9 3084.99 673.333 3093.55 666.2L3106.39 695.732C3100.11 701.153 3092.55 705.148 3083.7 707.716C3075.14 710.284 3066.15 711.568 3056.74 711.568ZM2946.31 515.972V482.16H3090.98V515.972H2946.31ZM3249.55 711.568C3225.29 711.568 3203.89 706.575 3185.35 696.588C3167.08 686.601 3152.82 672.905 3142.55 655.5C3132.56 638.095 3127.57 618.121 3127.57 595.58C3127.57 573.039 3132.42 553.065 3142.12 535.66C3152.1 518.255 3165.66 504.701 3182.78 495C3200.18 485.013 3219.73 480.02 3241.41 480.02C3263.38 480.02 3282.79 484.871 3299.62 494.572C3316.46 504.273 3329.58 517.969 3339 535.66C3348.7 553.065 3353.55 573.467 3353.55 596.864C3353.55 598.576 3353.41 600.573 3353.12 602.856C3353.12 605.139 3352.98 607.279 3352.69 609.276H3159.67V579.744H3331.29L3314.6 590.016C3314.89 575.464 3311.89 562.481 3305.61 551.068C3299.34 539.655 3290.63 530.809 3279.51 524.532C3268.66 517.969 3255.97 514.688 3241.41 514.688C3227.15 514.688 3214.45 517.969 3203.32 524.532C3192.19 530.809 3183.49 539.797 3177.21 551.496C3170.94 562.909 3167.8 576.035 3167.8 590.872V597.72C3167.8 612.843 3171.22 626.396 3178.07 638.38C3185.2 650.079 3195.05 659.209 3207.6 665.772C3220.16 672.335 3234.57 675.616 3250.83 675.616C3264.24 675.616 3276.37 673.333 3287.21 668.768C3298.34 664.203 3308.04 657.355 3316.31 648.224L3339 674.76C3328.73 686.744 3315.89 695.875 3300.48 702.152C3285.36 708.429 3268.38 711.568 3249.55 711.568ZM3420.45 711.568C3412.46 711.568 3405.61 708.857 3399.9 703.436C3394.2 697.729 3391.34 690.596 3391.34 682.036C3391.34 673.476 3394.2 666.485 3399.9 661.064C3405.61 655.643 3412.46 652.932 3420.45 652.932C3428.15 652.932 3434.71 655.643 3440.14 661.064C3445.84 666.485 3448.7 673.476 3448.7 682.036C3448.7 690.596 3445.84 697.729 3440.14 703.436C3434.71 708.857 3428.15 711.568 3420.45 711.568ZM3652.56 709V661.064L3650.42 652.076V570.328C3650.42 552.923 3645.29 539.512 3635.02 530.096C3625.03 520.395 3609.91 515.544 3589.65 515.544C3576.24 515.544 3563.11 517.827 3550.27 522.392C3537.43 526.672 3526.59 532.521 3517.74 539.94L3500.62 509.124C3512.32 499.708 3526.3 492.575 3542.57 487.724C3559.12 482.588 3576.38 480.02 3594.36 480.02C3625.46 480.02 3649.43 487.581 3666.26 502.704C3683.1 517.827 3691.51 540.939 3691.51 572.04V709H3652.56ZM3578.09 711.568C3561.26 711.568 3546.42 708.715 3533.58 703.008C3521.03 697.301 3511.32 689.455 3504.48 679.468C3497.63 669.196 3494.2 657.64 3494.2 644.8C3494.2 632.531 3497.06 621.403 3502.76 611.416C3508.76 601.429 3518.32 593.44 3531.44 587.448C3544.85 581.456 3562.83 578.46 3585.37 578.46H3657.27V607.992H3587.08C3566.54 607.992 3552.7 611.416 3545.56 618.264C3538.43 625.112 3534.86 633.387 3534.86 643.088C3534.86 654.216 3539.29 663.204 3548.13 670.052C3556.98 676.615 3569.25 679.896 3584.94 679.896C3600.35 679.896 3613.76 676.472 3625.17 669.624C3636.87 662.776 3645.29 652.789 3650.42 639.664L3658.56 667.912C3653.14 681.323 3643.58 692.023 3629.88 700.012C3616.18 707.716 3598.92 711.568 3578.09 711.568ZM3767.55 709V482.16H3808.64V709H3767.55ZM3788.09 438.504C3780.1 438.504 3773.4 435.936 3767.98 430.8C3762.84 425.664 3760.27 419.387 3760.27 411.968C3760.27 404.264 3762.84 397.844 3767.98 392.708C3773.4 387.572 3780.1 385.004 3788.09 385.004C3796.08 385.004 3802.65 387.572 3807.78 392.708C3813.2 397.559 3815.91 403.693 3815.91 411.112C3815.91 418.816 3813.35 425.379 3808.21 430.8C3803.07 435.936 3796.37 438.504 3788.09 438.504Z" fill="white"/>
<path d="M793.354 474.134C813.551 468.851 834.166 466.026 865.718 463.652C830.075 461.869 788.321 453.988 755.624 446.234C767.378 452.074 779.987 461.082 793.354 474.134Z" fill="white"/>
<path d="M793.354 474.134C745.237 506.429 757.988 546.437 731.523 615.126C705.059 683.815 658.385 727.679 521.971 717.315C412.841 709.025 352.838 813.962 336.478 867.467C393.417 844.892 515.007 774.243 544.262 675.138M793.354 474.134C779.987 461.082 767.378 452.074 755.624 446.234M793.354 474.134C813.551 468.851 834.166 466.026 865.718 463.652M544.262 675.138C458.641 682.529 268.584 660.774 193.328 514.624C234.709 486.024 369.968 453.455 579.953 551.981M544.262 675.138C575.075 660.524 628.032 619.205 650.513 551.981M660.79 474.134C653.332 331.936 553.729 215.286 467.117 209.501C455.184 307.256 498.714 382.79 521.971 408.337C555.654 450.916 614.405 539.255 579.953 551.981M660.79 474.134C670.192 457.508 691.328 436.904 721.419 437.304C731.794 437.442 743.234 440.077 755.624 446.234M660.79 474.134C662.309 503.079 658.186 529.038 650.513 551.981M914.13 460.637C895.329 461.667 879.482 462.617 865.718 463.652M579.953 551.981C592.268 559.452 623.622 569.912 650.513 551.981M755.624 446.234C788.321 453.988 830.075 461.869 865.718 463.652M865.771 463.655C865.753 463.654 865.736 463.653 865.718 463.652" stroke="white" stroke-width="16" stroke-linecap="round"/>
</svg>
